<?xml version="1.0" encoding="iso-8859-1"?>
<!-- Generator: Adobe Illustrator 19.1.0, SVG Export Plug-In . SVG Version: 6.00 Build 0)  -->
<svg version="1.1" id="Capa_1" xmlns="http://www.w3.org/2000/svg" xmlns:xlink="http://www.w3.org/1999/xlink" x="0px" y="0px"
	 viewBox="0 0 289.739 289.739" style="enable-background:new 0 0 289.739 289.739;" xml:space="preserve">
<g>
	<g>
		<path d="M78.471,22.938H48.893c-3.622,0-6.036,2.414-6.036,6.036v254.729c0,3.622,2.414,6.036,6.036,6.036h29.577
			c3.622,0,6.036-2.414,6.036-6.036V28.974C84.507,25.956,82.093,22.938,78.471,22.938z M72.435,277.666H54.93V35.01h17.505V277.666
			z"/>
		<path d="M159.96,22.938h-29.577c-3.622,0-6.036,2.414-6.036,6.036v254.729c0,3.622,2.414,6.036,6.036,6.036h29.577
			c3.622,0,6.036-2.414,6.036-6.036V28.974C165.996,25.956,162.978,22.938,159.96,22.938z M153.924,277.666h-17.505V35.01h17.505
			V277.666z"/>
		<path d="M240.845,22.938h-29.577c-3.622,0-6.036,2.414-6.036,6.036v254.729c0,3.622,2.414,6.036,6.036,6.036h29.577
			c3.622,0,6.036-2.414,6.036-6.036V28.974C246.881,25.956,243.863,22.938,240.845,22.938z M234.809,277.666h-17.505V35.01h17.505
			V277.666z"/>
		<path d="M214.286,22.334c3.622,0,6.036-2.414,6.036-6.036s-2.414-6.036-6.036-6.036h-10.865V6.036
			c0-3.622-2.414-6.036-6.036-6.036h-24.749c-3.622,0-6.036,2.414-6.036,6.036v4.225h-10.865c-3.622,0-6.036,2.414-6.036,6.036
			s2.414,6.036,6.036,6.036H166.6v4.225c0,3.622,2.414,6.036,6.036,6.036h24.749c3.622,0,6.036-2.414,6.036-6.036v-4.225H214.286z
			 M178.672,20.523v-8.451h12.676v4.225l0,0l0,0v4.225L178.672,20.523L178.672,20.523z"/>
		<path d="M133.4,22.334c3.622,0,6.036-2.414,6.036-6.036s-2.414-6.036-6.036-6.036h-10.865V6.036c0-3.622-2.414-6.036-6.036-6.036
			H91.751c-3.622,0-6.036,2.414-6.036,6.036v4.225H74.849c-3.622,0-6.036,2.414-6.036,6.036s2.414,6.036,6.036,6.036h10.865v4.225
			c0,3.622,2.414,6.036,6.036,6.036h24.749c3.622,0,6.036-2.414,6.036-6.036v-4.225H133.4z M110.463,20.523H97.787v-8.451h12.676
			V20.523z"/>
	</g>
</g>
<g>
</g>
<g>
</g>
<g>
</g>
<g>
</g>
<g>
</g>
<g>
</g>
<g>
</g>
<g>
</g>
<g>
</g>
<g>
</g>
<g>
</g>
<g>
</g>
<g>
</g>
<g>
</g>
<g>
</g>
</svg>
