<?xml version="1.0" encoding="iso-8859-1"?>
<!-- Generator: Adobe Illustrator 18.1.1, SVG Export Plug-In . SVG Version: 6.00 Build 0)  -->
<svg version="1.1" id="Capa_1" xmlns="http://www.w3.org/2000/svg" xmlns:xlink="http://www.w3.org/1999/xlink" x="0px" y="0px"
	 viewBox="0 0 448.348 448.348" style="enable-background:new 0 0 448.348 448.348;" xml:space="preserve">
<g>
	<g id="Layer_1_72_">
		<path d="M428.348,169.93h-43.831c-16.889-52.475-54.968-95.709-106.078-118.893c-98.936-44.891-215.95-0.928-260.84,98.02
			c-44.892,98.941-0.92,220.957,98.019,265.854h225.063c50.861-34.299,65.461-108.977,65.685-111.635
			c0.617-7.559-3.273-14.783-9.892-18.43c-6.667-3.668-14.818-3.08-20.872,1.479c-24.956,18.795-88.644,17.447-131.909,11.5
			c0.569-1.377,1.129-2.744,1.736-4.105c23.542-51.891,67.586-80.291,138.008-80.291h44.911c11.046,0,20-8.955,20-20v-3.498
			C448.348,178.883,439.394,169.93,428.348,169.93z M144.72,241.975c-13.667,0-24.747-11.08-24.747-24.746
			c0-13.668,11.08-24.747,24.747-24.747s24.747,11.079,24.747,24.747C169.467,230.895,158.387,241.975,144.72,241.975z
			 M357.918,334.678c-5.948,12.832-15.306,26.629-29.877,36.455c-22.361,15.078-53.001,18.393-91.224,10.004
			c-3.505-15.051-4.434-30.533-2.769-45.813C258.951,339.002,313.721,344.955,357.918,334.678z"/>
	</g>
</g>
<g>
</g>
<g>
</g>
<g>
</g>
<g>
</g>
<g>
</g>
<g>
</g>
<g>
</g>
<g>
</g>
<g>
</g>
<g>
</g>
<g>
</g>
<g>
</g>
<g>
</g>
<g>
</g>
<g>
</g>
</svg>
