<?xml version="1.0" encoding="utf-8"?>
<!-- Generator: Adobe Illustrator 21.1.0, SVG Export Plug-In . SVG Version: 6.00 Build 0)  -->
<svg version="1.1" id="Icons" xmlns="http://www.w3.org/2000/svg" xmlns:xlink="http://www.w3.org/1999/xlink" x="0px" y="0px"
	 viewBox="0 0 80 80" style="enable-background:new 0 0 80 80;" xml:space="preserve">
<style type="text/css">
	.st0{fill:#FFFFFF;}
</style>
<g>
	<path class="st0" d="M61,20h-6v-5h-5v5H30v-5h-5v5h-5.9c-2.2,0-4,1.8-4,4v37c0,2.2,1.8,4,4,4H61c2.2,0,4-1.8,4-4V24
		C65,21.8,63.2,20,61,20z M60,60H20V35h40V60z M60,30H20v-5h40V30z"/>
	<rect x="38" y="40" class="st0" width="5" height="5"/>
	<rect x="48" y="40" class="st0" width="5" height="5"/>
	<rect x="38" y="50" class="st0" width="5" height="5"/>
	<rect x="28" y="50" class="st0" width="5" height="5"/>
</g>
</svg>
