<svg id="Layer_1" data-name="Layer 1" xmlns="http://www.w3.org/2000/svg" viewBox="0 0 28 28"><defs><style>.cls-1{fill:none;stroke:#000;stroke-miterlimit:10;}</style></defs><title>Untitled-1</title><circle class="cls-1" cx="14" cy="14" r="13.5"/><path d="M472.64,351.79c0-2.45,1.36-4.14,3.49-4.14a3,3,0,0,1,2.87,2.1l-1.61.7a1.37,1.37,0,0,0-1.26-1.08c-.95,0-1.51,1-1.51,2.42s.56,2.42,1.51,2.42a1.37,1.37,0,0,0,1.26-1.15l1.61.67a3,3,0,0,1-2.87,2.19C474,355.93,472.64,354.22,472.64,351.79Z" transform="translate(-461.82 -337.79)"/></svg>