<svg id="Layer_1" data-name="Layer 1" xmlns="http://www.w3.org/2000/svg" viewBox="0 0 581.5 129.9"><defs><style>.cls-1{fill:#fff;}.cls-2{fill:#3c3c3b;}.cls-3{fill:#9d9d9c;}.cls-4{fill:#007a33;}</style></defs><title>Artboard 1</title><path class="cls-1" d="M107.1,21S85.7,33.4,69.8,18.3v-.1l-.1.1-.1-.1v.1C53.9,33.5,32.4,21,32.4,21l.9,47.4s-1.5,33.1,36.4,44.8h.2c37.9-11.8,36.4-44.8,36.4-44.8Z"/><path class="cls-2" d="M59.7,33.6s4.1-.4,3.4.7c-.3.4-2,.3-2,.6a10,10,0,0,1-2,7.3c-1,1.5-.7,6.6-1.7,8.3a4.38,4.38,0,0,1-4.9,2.4,4.64,4.64,0,0,1-3.9-3.3,5.43,5.43,0,0,1-5.3-2,5.93,5.93,0,0,1-.4-6.7c1.4-2.5,4.1-2.8,6.7-3.2,4.7-.7,5.1-4.8,10-3.9"/><path class="cls-2" d="M95.5,33.6s4.1-.4,3.4.7c-.3.4-2,.3-2,.6a10,10,0,0,1-2,7.3c-1,1.5-.7,6.6-1.7,8.3a4.38,4.38,0,0,1-4.9,2.4,4.64,4.64,0,0,1-3.9-3.3,5.43,5.43,0,0,1-5.3-2,5.93,5.93,0,0,1-.4-6.7c1.4-2.5,4.1-2.8,6.7-3.2,4.7-.7,5.1-4.8,10-3.9"/><path class="cls-2" d="M76.9,74.8s4.1-.4,3.4.7c-.3.5-2,.3-2,.6a10.26,10.26,0,0,1-2,7.4c-1,1.5-.6,6.6-1.7,8.3a4.75,4.75,0,0,1-8.7-.9,5.87,5.87,0,0,1-5.3-2,6.1,6.1,0,0,1-.5-6.7c1.4-2.5,4.1-2.8,6.7-3.2,4.7-.7,5.2-4.9,10-4"/><rect class="cls-3" x="33.3" y="67" width="72.8" height="0.9"/><rect class="cls-3" x="33.4" y="64.5" width="72.8" height="0.9"/><rect class="cls-3" x="33.4" y="61.9" width="72.8" height="0.9"/><rect class="cls-3" x="33.3" y="59.4" width="72.9" height="0.9"/><rect class="cls-3" x="33.3" y="56.8" width="72.9" height="0.9"/><path class="cls-4" d="M69.8,14.3C50.6,32.5,30.1,16,30.1,16S33,68.2,33.7,77.5c.9,11.9,11.3,28.8,36,38.1,24.7-9.3,35.1-26.2,36-38.1.7-9.3,3.6-61.5,3.6-61.5S89,32.5,69.8,14.3m0,97.1C32.9,98.8,33.4,70.7,33.4,67s.9-42.3.9-42.3,20.1,11.7,35.4-2.1c15.4,13.8,35.4,2.1,35.4,2.1s.9,38.6.9,42.3c.2,3.7.7,31.8-36.2,44.4"/><polygon class="cls-4" points="124.8 34.8 132.6 34.8 137.9 56 138 56 144.8 34.8 151.5 34.8 158.3 56.6 158.4 56.6 164 34.8 171.3 34.8 161.7 67.8 155.2 67.8 148 45 147.9 45 140.7 67.8 134.5 67.8 124.8 34.8"/><path class="cls-4" d="M173.2,51.3a18.82,18.82,0,0,1,1.3-7.2,15.87,15.87,0,0,1,9.3-9,21.6,21.6,0,0,1,14.2,0,16.11,16.11,0,0,1,5.6,3.5,15.25,15.25,0,0,1,3.7,5.5,18.13,18.13,0,0,1,1.3,7.2,18.82,18.82,0,0,1-1.3,7.2,15.87,15.87,0,0,1-9.3,9,21.6,21.6,0,0,1-14.2,0,16.11,16.11,0,0,1-5.6-3.5,15.25,15.25,0,0,1-3.7-5.5,20.09,20.09,0,0,1-1.3-7.2m7.5,0a11.76,11.76,0,0,0,.7,4.3,10.78,10.78,0,0,0,2.1,3.4,10.16,10.16,0,0,0,3.2,2.2,11.22,11.22,0,0,0,4.2.8,11.62,11.62,0,0,0,4.2-.8,9.14,9.14,0,0,0,3.2-2.2,9.77,9.77,0,0,0,2.1-3.4,11.76,11.76,0,0,0,.7-4.3,11.58,11.58,0,0,0-.7-4.2,10.78,10.78,0,0,0-2.1-3.4,10.16,10.16,0,0,0-3.2-2.2,10.84,10.84,0,0,0-4.2-.8,11.62,11.62,0,0,0-4.2.8,10.16,10.16,0,0,0-3.2,2.2,9.77,9.77,0,0,0-2.1,3.4,14.21,14.21,0,0,0-.7,4.2"/><path class="cls-4" d="M214,34.8h12.7a23.35,23.35,0,0,1,4.7.5,11.43,11.43,0,0,1,3.9,1.6A9.06,9.06,0,0,1,238,40a10,10,0,0,1,1,4.8,10.14,10.14,0,0,1-1.8,6,8.18,8.18,0,0,1-5.3,3.1l8.3,13.9h-8.7l-6.9-13.2H221V67.8h-7Zm7.2,13.7h4.3a15.48,15.48,0,0,0,2.1-.1,6.47,6.47,0,0,0,2-.4,3.12,3.12,0,0,0,2.1-3.2,3.94,3.94,0,0,0-.5-2,2.76,2.76,0,0,0-1.3-1.1,4.76,4.76,0,0,0-1.8-.5,13.4,13.4,0,0,0-2-.1h-4.7v7.4Z"/><path class="cls-4" d="M265.9,43.4a7.27,7.27,0,0,0-2.6-2,8,8,0,0,0-3.6-.7,9.57,9.57,0,0,0-3.8.8,8.35,8.35,0,0,0-3,2.2,11.31,11.31,0,0,0-2,3.4,11.58,11.58,0,0,0-.7,4.2,11.76,11.76,0,0,0,.7,4.3,10.53,10.53,0,0,0,2,3.4,8.93,8.93,0,0,0,2.9,2.2,8.63,8.63,0,0,0,3.6.8,8,8,0,0,0,3.9-.9,7.74,7.74,0,0,0,2.8-2.6l6,4.5a12.23,12.23,0,0,1-5.3,4.3,16.63,16.63,0,0,1-6.6,1.4,20.35,20.35,0,0,1-7.1-1.2,16.11,16.11,0,0,1-5.6-3.5,15.25,15.25,0,0,1-3.7-5.5,18.13,18.13,0,0,1-1.3-7.2,18.47,18.47,0,0,1,1.3-7.2,15.87,15.87,0,0,1,9.3-9,20.35,20.35,0,0,1,7.1-1.2,15,15,0,0,1,2.9.3,16.66,16.66,0,0,1,3,.8,15.09,15.09,0,0,1,2.8,1.5,10.44,10.44,0,0,1,2.4,2.3Z"/><polygon class="cls-4" points="276.9 34.8 299.2 34.8 299.2 41.5 284.2 41.5 284.2 47.7 298.4 47.7 298.4 54.4 284.2 54.4 284.2 61.1 300.1 61.1 300.1 67.8 276.9 67.8 276.9 34.8"/><path class="cls-4" d="M322.5,42.9a6.14,6.14,0,0,0-2.4-1.7,7.71,7.71,0,0,0-2.9-.5,8.75,8.75,0,0,0-1.6.2,4.42,4.42,0,0,0-1.6.6,4,4,0,0,0-1.2,1,2.77,2.77,0,0,0-.5,1.6,2.71,2.71,0,0,0,1.1,2.3,9.11,9.11,0,0,0,2.8,1.3,30.65,30.65,0,0,0,3.6,1.1,14.62,14.62,0,0,1,3.6,1.6,9,9,0,0,1,2.8,2.7,8.94,8.94,0,0,1,1.1,4.6,10.58,10.58,0,0,1-1,4.8,9.32,9.32,0,0,1-2.8,3.4,11.58,11.58,0,0,1-4,2,18.54,18.54,0,0,1-4.8.7,16.26,16.26,0,0,1-5.9-1,15.55,15.55,0,0,1-5.1-3.2l5.1-5.7a7,7,0,0,0,2.8,2.3,8.53,8.53,0,0,0,3.5.8,11,11,0,0,0,1.8-.2,4.42,4.42,0,0,0,1.6-.6,3.18,3.18,0,0,0,1.2-1.1,2.41,2.41,0,0,0,.4-1.5A3,3,0,0,0,319,56a9.86,9.86,0,0,0-2.9-1.5c-1.1-.4-2.4-.8-3.7-1.2a15.33,15.33,0,0,1-3.7-1.6,9,9,0,0,1-2.8-2.7,7.38,7.38,0,0,1-1.1-4.4,10.15,10.15,0,0,1,1-4.7,9.32,9.32,0,0,1,2.8-3.4,11.58,11.58,0,0,1,4-2,18.42,18.42,0,0,1,4.7-.7,19.6,19.6,0,0,1,5.4.8,11.77,11.77,0,0,1,4.7,2.7Z"/><polygon class="cls-4" points="339.7 41.3 330.4 41.3 330.4 34.8 356.3 34.8 356.3 41.3 346.9 41.3 346.9 67.8 339.7 67.8 339.7 41.3"/><polygon class="cls-4" points="360.7 34.8 383 34.8 383 41.5 367.9 41.5 367.9 47.7 382.2 47.7 382.2 54.4 367.9 54.4 367.9 61.1 383.8 61.1 383.8 67.8 360.7 67.8 360.7 34.8"/><path class="cls-4" d="M390.1,34.8h12.7a23.35,23.35,0,0,1,4.7.5,11.43,11.43,0,0,1,3.9,1.6,9.06,9.06,0,0,1,2.7,3.1,10,10,0,0,1,1,4.8,10.14,10.14,0,0,1-1.8,6,8.18,8.18,0,0,1-5.3,3.1l8.3,13.9h-8.7l-6.9-13.2h-3.6V67.8h-7.2v-33Zm7.2,13.7h4.3a15.48,15.48,0,0,0,2.1-.1,6.47,6.47,0,0,0,2-.4,3.12,3.12,0,0,0,2.1-3.2,3.94,3.94,0,0,0-.5-2,2.76,2.76,0,0,0-1.3-1.1,4.76,4.76,0,0,0-1.8-.5,13.4,13.4,0,0,0-2-.1h-4.7v7.4Z"/><path class="cls-4" d="M436.8,42.9a6.14,6.14,0,0,0-2.4-1.7,7.71,7.71,0,0,0-2.9-.5,8.75,8.75,0,0,0-1.6.2,4.42,4.42,0,0,0-1.6.6,4,4,0,0,0-1.2,1,2.77,2.77,0,0,0-.5,1.6,2.71,2.71,0,0,0,1.1,2.3,9.11,9.11,0,0,0,2.8,1.3,30.65,30.65,0,0,0,3.6,1.1,14.62,14.62,0,0,1,3.6,1.6,9,9,0,0,1,2.8,2.7,8.94,8.94,0,0,1,1.1,4.6,10.58,10.58,0,0,1-1,4.8,9.32,9.32,0,0,1-2.8,3.4,11.58,11.58,0,0,1-4,2,18.54,18.54,0,0,1-4.8.7,16.26,16.26,0,0,1-5.9-1,15.55,15.55,0,0,1-5.1-3.2l5.1-5.7a7,7,0,0,0,2.8,2.3,8.53,8.53,0,0,0,3.5.8,11,11,0,0,0,1.8-.2,4.42,4.42,0,0,0,1.6-.6,3.18,3.18,0,0,0,1.2-1.1,2.41,2.41,0,0,0,.4-1.5,3,3,0,0,0-1.1-2.4,9.86,9.86,0,0,0-2.9-1.5c-1.1-.4-2.4-.8-3.7-1.2a15.33,15.33,0,0,1-3.7-1.6,9,9,0,0,1-2.8-2.7,7.38,7.38,0,0,1-1.1-4.4,10.15,10.15,0,0,1,1-4.7,9.32,9.32,0,0,1,2.8-3.4,11.58,11.58,0,0,1,4-2,18.42,18.42,0,0,1,4.7-.7,19.6,19.6,0,0,1,5.4.8,11.77,11.77,0,0,1,4.7,2.7Z"/><polygon class="cls-4" points="447.6 34.8 454.8 34.8 454.8 47.1 468.9 47.1 468.9 34.8 476.1 34.8 476.1 67.8 468.9 67.8 468.9 53.6 454.8 53.6 454.8 67.8 447.6 67.8 447.6 34.8"/><rect class="cls-4" x="483.2" y="34.8" width="7.2" height="33"/><path class="cls-4" d="M497.4,34.8h12.7a23.35,23.35,0,0,1,4.7.5,11.43,11.43,0,0,1,3.9,1.6,9.06,9.06,0,0,1,2.7,3.1,10,10,0,0,1,1,4.8,10.14,10.14,0,0,1-1.8,6,8.18,8.18,0,0,1-5.3,3.1l8.3,13.9h-8.7L508,54.6h-3.6V67.8h-7.2v-33Zm7.2,13.7h4.3a16.23,16.23,0,0,0,2.1-.1,6.47,6.47,0,0,0,2-.4,3.12,3.12,0,0,0,2.1-3.2,3.94,3.94,0,0,0-.5-2,2.76,2.76,0,0,0-1.3-1.1,4.76,4.76,0,0,0-1.8-.5,13.4,13.4,0,0,0-2-.1h-4.7v7.4Z"/><polygon class="cls-4" points="528.2 34.8 528.2 67.8 551.3 67.8 551.3 61.1 535.4 61.1 535.4 54.4 549.6 54.4 549.6 47.7 535.4 47.7 535.4 41.5 550.5 41.5 550.5 34.8 528.2 34.8"/><path class="cls-3" d="M140.3,85.8a5.49,5.49,0,0,0-2.2-1.8,6.71,6.71,0,0,0-2.8-.6,6.17,6.17,0,0,0-3.1.7,6.9,6.9,0,0,0-2.4,1.8,9.19,9.19,0,0,0-1.6,2.7,8.8,8.8,0,0,0-.5,3.3,10.59,10.59,0,0,0,.5,3.1,6.81,6.81,0,0,0,1.5,2.6,10.77,10.77,0,0,0,2.4,1.8,7.94,7.94,0,0,0,3.2.6,6.17,6.17,0,0,0,3.1-.7,7.59,7.59,0,0,0,2.3-2.1L143,99c-.2.2-.4.5-.8.9a9.8,9.8,0,0,1-3.8,2.3,9.59,9.59,0,0,1-3.1.5,10.49,10.49,0,0,1-4.4-.9,10.3,10.3,0,0,1-3.3-2.5,11.26,11.26,0,0,1-2.1-3.5,10.72,10.72,0,0,1-.7-3.9,13.3,13.3,0,0,1,.8-4.5,10.43,10.43,0,0,1,2.2-3.5,8.92,8.92,0,0,1,3.4-2.3,12.31,12.31,0,0,1,4.4-.8,11,11,0,0,1,4,.8,7,7,0,0,1,3.2,2.4Z"/><path class="cls-3" d="M161.3,102.7a11.76,11.76,0,0,1-4.3-.8,11.34,11.34,0,0,1-3.4-2.3,10.43,10.43,0,0,1-2.2-3.5,12,12,0,0,1,0-8.6,11.52,11.52,0,0,1,2.2-3.5,8.92,8.92,0,0,1,3.4-2.3,10.29,10.29,0,0,1,4.3-.8,12.17,12.17,0,0,1,4.3.8A11.34,11.34,0,0,1,169,84a10.43,10.43,0,0,1,2.2,3.5,12.17,12.17,0,0,1,.8,4.3,11.76,11.76,0,0,1-.8,4.3,11.52,11.52,0,0,1-2.2,3.5,8.92,8.92,0,0,1-3.4,2.3,12.17,12.17,0,0,1-4.3.8m0-2.7a6.83,6.83,0,0,0,3.2-.7,5.46,5.46,0,0,0,2.4-1.8,7.6,7.6,0,0,0,1.6-2.6,8.59,8.59,0,0,0,.5-3.2,11.27,11.27,0,0,0-.5-3.2,7.6,7.6,0,0,0-1.6-2.6,8.4,8.4,0,0,0-2.4-1.8,7.93,7.93,0,0,0-3.2-.7,6.83,6.83,0,0,0-3.2.7,5.46,5.46,0,0,0-2.4,1.8,7.6,7.6,0,0,0-1.6,2.6,8.59,8.59,0,0,0-.5,3.2,11.27,11.27,0,0,0,.5,3.2,7.6,7.6,0,0,0,1.6,2.6,8.4,8.4,0,0,0,2.4,1.8,6.57,6.57,0,0,0,3.2.7"/><path class="cls-3" d="M183.7,81.3V94.1a7.47,7.47,0,0,0,.3,2,6.63,6.63,0,0,0,.9,1.9,3.64,3.64,0,0,0,1.6,1.4,4.75,4.75,0,0,0,2.4.6,4.27,4.27,0,0,0,2.4-.6,5.56,5.56,0,0,0,1.6-1.4,6.63,6.63,0,0,0,.9-1.9,7.47,7.47,0,0,0,.3-2V81.3h2.8V94.5a8.81,8.81,0,0,1-.6,3.3,7.82,7.82,0,0,1-1.7,2.6,8.52,8.52,0,0,1-2.5,1.7,8.15,8.15,0,0,1-3.1.6,7.79,7.79,0,0,1-3.1-.6,7.39,7.39,0,0,1-2.5-1.7,7.82,7.82,0,0,1-1.7-2.6,8.81,8.81,0,0,1-.6-3.3V81.3Z"/><polygon class="cls-3" points="207.1 81.3 210.8 81.3 222.1 98.4 222.2 98.4 222.2 81.3 224.9 81.3 224.9 102.1 221.4 102.1 210 85 209.9 85 209.9 102.1 207.1 102.1 207.1 81.3"/><polygon class="cls-3" points="239.9 83.9 233.3 83.9 233.3 81.3 249.3 81.3 249.3 83.9 242.7 83.9 242.7 102.1 239.9 102.1 239.9 83.9"/><polygon class="cls-3" points="262.5 93.2 254.7 81.3 258.3 81.3 263.9 90.4 269.6 81.3 273 81.3 265.2 93.2 265.2 102.1 262.5 102.1 262.5 93.2"/><path class="cls-3" d="M308.5,85.8a5.48,5.48,0,0,0-2.2-1.8,6.71,6.71,0,0,0-2.8-.6,6.17,6.17,0,0,0-3.1.7,6.9,6.9,0,0,0-2.4,1.8,9.19,9.19,0,0,0-1.6,2.7,8.8,8.8,0,0,0-.5,3.3,10.59,10.59,0,0,0,.5,3.1,6.81,6.81,0,0,0,1.5,2.6,10.77,10.77,0,0,0,2.4,1.8,7.94,7.94,0,0,0,3.2.6,6.17,6.17,0,0,0,3.1-.7,7.59,7.59,0,0,0,2.3-2.1l2.3,1.8c-.2.2-.4.5-.8.9a9.8,9.8,0,0,1-3.8,2.3,9.59,9.59,0,0,1-3.1.5,10.49,10.49,0,0,1-4.4-.9,10.3,10.3,0,0,1-3.3-2.5,11.26,11.26,0,0,1-2.1-3.5,10.72,10.72,0,0,1-.7-3.9,13.3,13.3,0,0,1,.8-4.5,10.43,10.43,0,0,1,2.2-3.5,8.92,8.92,0,0,1,3.4-2.3,12.31,12.31,0,0,1,4.4-.8,11,11,0,0,1,4,.8A7,7,0,0,1,311,84Z"/><path class="cls-3" d="M320,81.3h7.2a9.33,9.33,0,0,1,3.2.5,5.1,5.1,0,0,1,2,1.4,5,5,0,0,1,1,1.9,7.47,7.47,0,0,1,.3,2,5.22,5.22,0,0,1-1.3,3.6,7,7,0,0,1-1.6,1.3,4.69,4.69,0,0,1-2.1.6l5.8,9.5H331l-5.2-9.2h-3.1v9.2H320Zm2.8,9.2h3.7a8.6,8.6,0,0,0,1.6-.1,3.36,3.36,0,0,0,1.4-.5,3.18,3.18,0,0,0,1-1,3.81,3.81,0,0,0,0-3.4,3.18,3.18,0,0,0-1-1,5.78,5.78,0,0,0-1.4-.5,8.6,8.6,0,0,0-1.6-.1h-3.7Z"/><rect class="cls-3" x="343.1" y="81.3" width="2.8" height="20.9"/><path class="cls-3" d="M370.8,85.8a5.48,5.48,0,0,0-2.2-1.8,6.71,6.71,0,0,0-2.8-.6,6.17,6.17,0,0,0-3.1.7,6.9,6.9,0,0,0-2.4,1.8,9.19,9.19,0,0,0-1.6,2.7,8.8,8.8,0,0,0-.5,3.3,10.59,10.59,0,0,0,.5,3.1,6.81,6.81,0,0,0,1.5,2.6,10.77,10.77,0,0,0,2.4,1.8,7.94,7.94,0,0,0,3.2.6,6.17,6.17,0,0,0,3.1-.7,7.59,7.59,0,0,0,2.3-2.1l2.3,1.8c-.2.2-.4.5-.8.9a9.8,9.8,0,0,1-3.8,2.3,9.59,9.59,0,0,1-3.1.5,10.49,10.49,0,0,1-4.4-.9,10.3,10.3,0,0,1-3.3-2.5,11.26,11.26,0,0,1-2.1-3.5,10.72,10.72,0,0,1-.7-3.9,13.3,13.3,0,0,1,.8-4.5,10.43,10.43,0,0,1,2.2-3.5,8.92,8.92,0,0,1,3.4-2.3,12.31,12.31,0,0,1,4.4-.8,11,11,0,0,1,4,.8,7,7,0,0,1,3.2,2.4Z"/><polygon class="cls-3" points="382.3 81.3 385.1 81.3 385.1 90.3 385.3 90.3 394.4 81.3 398.3 81.3 388.4 90.9 398.9 102.1 394.9 102.1 385.3 91.7 385.1 91.7 385.1 102.1 382.3 102.1 382.3 81.3"/><polygon class="cls-3" points="406.5 81.3 419.7 81.3 419.7 83.9 409.2 83.9 409.2 90.1 419 90.1 419 92.8 409.2 92.8 409.2 99.5 420.2 99.5 420.2 102.1 406.5 102.1 406.5 81.3"/><polygon class="cls-3" points="433.9 83.9 427.2 83.9 427.2 81.3 443.2 81.3 443.2 83.9 436.6 83.9 436.6 102.1 433.9 102.1 433.9 83.9"/><path class="cls-3" d="M479.3,85.8a5.48,5.48,0,0,0-2.2-1.8,6.71,6.71,0,0,0-2.8-.6,6.17,6.17,0,0,0-3.1.7,6.9,6.9,0,0,0-2.4,1.8,9.19,9.19,0,0,0-1.6,2.7,8.8,8.8,0,0,0-.5,3.3,10.59,10.59,0,0,0,.5,3.1,6.81,6.81,0,0,0,1.5,2.6,10.77,10.77,0,0,0,2.4,1.8,7.94,7.94,0,0,0,3.2.6,6.17,6.17,0,0,0,3.1-.7,7.59,7.59,0,0,0,2.3-2.1L482,99c-.2.2-.4.5-.8.9a9.8,9.8,0,0,1-3.8,2.3,9.59,9.59,0,0,1-3.1.5,10.49,10.49,0,0,1-4.4-.9,10.3,10.3,0,0,1-3.3-2.5,11.26,11.26,0,0,1-2.1-3.5,10.72,10.72,0,0,1-.7-3.9,13.3,13.3,0,0,1,.8-4.5,10.43,10.43,0,0,1,2.2-3.5,8.92,8.92,0,0,1,3.4-2.3,12.31,12.31,0,0,1,4.4-.8,11,11,0,0,1,4,.8,7,7,0,0,1,3.2,2.4Z"/><polygon class="cls-3" points="490.8 81.3 493.6 81.3 493.6 99.5 503 99.5 503 102.1 490.8 102.1 490.8 81.3"/><path class="cls-3" d="M513.6,81.3V94.1a7.47,7.47,0,0,0,.3,2,6.63,6.63,0,0,0,.9,1.9,3.64,3.64,0,0,0,1.6,1.4,4.75,4.75,0,0,0,2.4.6,4.27,4.27,0,0,0,2.4-.6,5.56,5.56,0,0,0,1.6-1.4,6.63,6.63,0,0,0,.9-1.9,7.47,7.47,0,0,0,.3-2V81.3h2.8V94.5a8.81,8.81,0,0,1-.6,3.3,7.82,7.82,0,0,1-1.7,2.6,8.52,8.52,0,0,1-2.5,1.7,8.15,8.15,0,0,1-3.1.6,7.79,7.79,0,0,1-3.1-.6,7.39,7.39,0,0,1-2.5-1.7,7.82,7.82,0,0,1-1.7-2.6,8.81,8.81,0,0,1-.6-3.3V81.3Z"/><path class="cls-3" d="M537,81.3h7.1a10.07,10.07,0,0,1,2.5.3,4.72,4.72,0,0,1,2,1,5.09,5.09,0,0,1,1.3,1.6,5.56,5.56,0,0,1,.5,2.3,4,4,0,0,1-1,2.9,5.91,5.91,0,0,1-2.6,1.7v.1a3.37,3.37,0,0,1,1.7.5,7.55,7.55,0,0,1,1.4,1.1,5.07,5.07,0,0,1,.9,1.6,6.45,6.45,0,0,1,.3,2,5.14,5.14,0,0,1-.6,2.5,6.55,6.55,0,0,1-1.5,1.8,6.14,6.14,0,0,1-2.3,1.1,8.63,8.63,0,0,1-2.8.4H537Zm2.8,8.6h3.8a7.72,7.72,0,0,0,1.5-.2,3.34,3.34,0,0,0,1.2-.5,3.92,3.92,0,0,0,.8-1,3.19,3.19,0,0,0,.3-1.4,3.72,3.72,0,0,0-.8-2.2,3,3,0,0,0-2.5-.9h-4.4v6.2Zm0,9.8h4.1a7.08,7.08,0,0,0,1.4-.1,5.78,5.78,0,0,0,1.4-.5,3.84,3.84,0,0,0,1.1-1.1,3,3,0,0,0,.5-1.8,3.36,3.36,0,0,0-1.2-2.8,5.27,5.27,0,0,0-3.2-.9h-4.1Z"/></svg>