<svg id="Layer_1" data-name="Layer 1" xmlns="http://www.w3.org/2000/svg" viewBox="0 0 423.44 82.37"><defs><style>.cls-1{fill:#fff;}.cls-2{fill:#3c3c3b;}.cls-3{fill:#9d9d9c;}.cls-4{fill:#007936;}</style></defs><title>WCCC2017-Standard</title><path class="cls-1" d="M139.22,168.24s-17.42,10.1-30.3-2.23v-.09l-.05,0,0,0V166c-12.88,12.33-30.3,2.23-30.3,2.23l.71,38.48S78,233.59,108.82,243.15v0l0,0,.05,0v0c30.8-9.56,29.59-36.43,29.59-36.43Z" transform="translate(-76.67 -162.73)"/><path class="cls-2" d="M100.67,178.44s3.33-.33,2.75.59c-.26.33-1.64.26-1.64.46a8.17,8.17,0,0,1-1.63,5.92c-.85,1.26-.59,5.4-1.37,6.78a3.63,3.63,0,0,1-4,2,3.68,3.68,0,0,1-3.14-2.7,4.55,4.55,0,0,1-4.32-1.65,4.89,4.89,0,0,1-.33-5.46c1.11-2,3.33-2.3,5.43-2.64,3.86-.59,4.12-3.88,8.11-3.16" transform="translate(-76.67 -162.73)"/><path class="cls-2" d="M129.78,178.44s3.33-.33,2.75.59c-.26.33-1.64.26-1.64.46a8.17,8.17,0,0,1-1.63,5.92c-.85,1.26-.59,5.4-1.37,6.78a3.63,3.63,0,0,1-4,2,3.68,3.68,0,0,1-3.14-2.7,4.55,4.55,0,0,1-4.32-1.65,4.89,4.89,0,0,1-.33-5.46c1.11-2,3.33-2.3,5.43-2.64,3.86-.59,4.12-3.88,8.11-3.16" transform="translate(-76.67 -162.73)"/><path class="cls-2" d="M114.67,211.89s3.34-.33,2.75.53c-.26.39-1.63.26-1.63.46a8,8,0,0,1-1.64,6c-.85,1.19-.52,5.4-1.37,6.78a3.74,3.74,0,0,1-4,2,3.65,3.65,0,0,1-3.08-2.7,4.7,4.7,0,0,1-4.71-7.11c1.11-2,3.33-2.3,5.43-2.63,3.86-.59,4.19-4,8.11-3.23" transform="translate(-76.67 -162.73)"/><rect class="cls-3" x="2.6" y="42.83" width="59.16" height="0.73"/><rect class="cls-3" x="2.67" y="40.8" width="59.17" height="0.74"/><rect class="cls-3" x="2.67" y="38.71" width="59.17" height="0.74"/><rect class="cls-3" x="2.6" y="36.68" width="59.24" height="0.74"/><rect class="cls-3" x="2.54" y="34.6" width="59.24" height="0.74"/><path class="cls-4" d="M108.89,162.73c-15.6,14.79-32.22,1.42-32.22,1.42s2.39,42.39,3,50c.72,9.69,9.17,23.4,29.27,31,20.1-7.57,28.55-21.28,29.27-31,.56-7.59,2.95-50,2.95-50s-16.62,13.37-32.22-1.42m0,78.93c-30-10.26-29.54-33.08-29.54-36.1s.75-34.39.75-34.39,16.3,9.5,28.79-1.73c12.49,11.23,28.79,1.73,28.79,1.73s.75,31.36.75,34.39.42,25.84-29.54,36.1" transform="translate(-76.67 -162.73)"/><polygon class="cls-1" points="76.87 16.71 83.27 16.71 87.53 33.92 87.6 33.92 93.17 16.71 98.63 16.71 104.16 34.38 104.24 34.38 108.72 16.71 114.67 16.71 106.87 43.55 101.64 43.55 95.77 24.98 95.69 24.98 89.82 43.55 84.78 43.55 76.87 16.71"/><path class="cls-1" d="M192.91,192.85A15.23,15.23,0,0,1,194,187a12.78,12.78,0,0,1,3-4.45,13.12,13.12,0,0,1,4.56-2.82,17.31,17.31,0,0,1,11.52,0,13.16,13.16,0,0,1,4.56,2.82,12.8,12.8,0,0,1,3,4.45,16.39,16.39,0,0,1,0,11.68,12.85,12.85,0,0,1-3,4.45,13.16,13.16,0,0,1-4.56,2.82,17.31,17.31,0,0,1-11.52,0,13.12,13.12,0,0,1-4.56-2.82,12.82,12.82,0,0,1-3-4.45,15.23,15.23,0,0,1-1.07-5.84m6.1,0a9.86,9.86,0,0,0,.58,3.47,7.94,7.94,0,0,0,1.67,2.73,7.69,7.69,0,0,0,2.62,1.8,9.3,9.3,0,0,0,6.81,0,7.62,7.62,0,0,0,2.62-1.8,7.94,7.94,0,0,0,1.68-2.73,10.52,10.52,0,0,0,0-6.91,7.9,7.9,0,0,0-1.68-2.75,7.62,7.62,0,0,0-2.62-1.8,9.3,9.3,0,0,0-6.81,0,7.69,7.69,0,0,0-2.62,1.8,7.89,7.89,0,0,0-1.67,2.75,9.91,9.91,0,0,0-.58,3.45" transform="translate(-76.67 -162.73)"/><path class="cls-1" d="M226,179.44h10.32a18.09,18.09,0,0,1,3.86.4,9.1,9.1,0,0,1,3.2,1.33,6.57,6.57,0,0,1,2.18,2.5,8.5,8.5,0,0,1,.81,3.92,7.9,7.9,0,0,1-1.47,4.83,6.59,6.59,0,0,1-4.29,2.52l6.77,11.33h-7l-5.57-10.72h-2.9v10.72H226Zm5.87,11.1h3.46c.53,0,1.09,0,1.68-.06a5.19,5.19,0,0,0,1.6-.34,2.77,2.77,0,0,0,1.19-.89,2.73,2.73,0,0,0,.47-1.7,2.85,2.85,0,0,0-.41-1.63,2.81,2.81,0,0,0-1.05-.93,4.75,4.75,0,0,0-1.47-.44,12.41,12.41,0,0,0-1.62-.11h-3.84Z" transform="translate(-76.67 -162.73)"/><path class="cls-1" d="M268.24,186.41a5.77,5.77,0,0,0-2.13-1.63,7,7,0,0,0-2.92-.57,7.28,7.28,0,0,0-3.07.64,7.38,7.38,0,0,0-2.45,1.8,8.41,8.41,0,0,0-1.62,2.75,10.52,10.52,0,0,0,0,6.91,8.57,8.57,0,0,0,1.6,2.73,7.18,7.18,0,0,0,2.39,1.8,6.87,6.87,0,0,0,3,.64,6.6,6.6,0,0,0,3.2-.76,6.4,6.4,0,0,0,2.29-2.12l4.89,3.68a10.22,10.22,0,0,1-4.29,3.52,13.22,13.22,0,0,1-5.35,1.14,16.32,16.32,0,0,1-5.76-1,13.12,13.12,0,0,1-4.55-2.82,12.79,12.79,0,0,1-3-4.45,16.38,16.38,0,0,1,0-11.67,12.79,12.79,0,0,1,3-4.45,13.16,13.16,0,0,1,4.55-2.82,16.32,16.32,0,0,1,5.76-1,14,14,0,0,1,2.35.21,12.81,12.81,0,0,1,2.41.66,11,11,0,0,1,2.28,1.21,9.17,9.17,0,0,1,2,1.86Z" transform="translate(-76.67 -162.73)"/><polygon class="cls-1" points="200.53 16.71 218.63 16.71 218.63 22.17 206.4 22.17 206.4 27.17 217.96 27.17 217.96 32.63 206.4 32.63 206.4 38.09 219.31 38.09 219.31 43.55 200.53 43.55 200.53 16.71"/><path class="cls-1" d="M314.23,186a4.16,4.16,0,0,0-1.94-1.34,7,7,0,0,0-2.32-.44,6,6,0,0,0-1.31.15,5,5,0,0,0-1.28.47,2.83,2.83,0,0,0-1,.85A2.18,2.18,0,0,0,306,187a2.14,2.14,0,0,0,.9,1.86,8.52,8.52,0,0,0,2.28,1.1c.92.3,1.9.61,3,.91a12.2,12.2,0,0,1,3,1.29,7,7,0,0,1,2.28,2.24,6.83,6.83,0,0,1,.9,3.75,8.68,8.68,0,0,1-.83,3.9,8,8,0,0,1-2.24,2.77,9.48,9.48,0,0,1-3.27,1.63A14.31,14.31,0,0,1,308,207a14.16,14.16,0,0,1-4.82-.8,12,12,0,0,1-4.14-2.58l4.18-4.62a6.15,6.15,0,0,0,2.28,1.88,6.48,6.48,0,0,0,2.84.66,6.36,6.36,0,0,0,1.45-.17,4.77,4.77,0,0,0,1.32-.51,2.88,2.88,0,0,0,.94-.87,2.19,2.19,0,0,0,.36-1.25,2.27,2.27,0,0,0-.92-1.91,8.38,8.38,0,0,0-2.31-1.19c-.93-.33-1.93-.66-3-1a13.45,13.45,0,0,1-3-1.33,7.24,7.24,0,0,1-2.31-2.2,6.33,6.33,0,0,1-.92-3.6,8.12,8.12,0,0,1,.84-3.79A8.29,8.29,0,0,1,303,181a9.87,9.87,0,0,1,3.26-1.65,13.29,13.29,0,0,1,3.8-.55,14.86,14.86,0,0,1,4.37.64,10.14,10.14,0,0,1,3.8,2.16Z" transform="translate(-76.67 -162.73)"/><polygon class="cls-1" points="251.53 21.94 243.93 21.94 243.93 16.71 265.01 16.71 265.01 21.94 257.4 21.94 257.4 43.54 251.53 43.54 251.53 21.94"/><polygon class="cls-1" points="268.58 16.71 286.69 16.71 286.69 22.17 274.46 22.17 274.46 27.17 286.01 27.17 286.01 32.63 274.46 32.63 274.46 38.09 287.37 38.09 287.37 43.55 268.58 43.55 268.58 16.71"/><path class="cls-1" d="M369.11,179.44h10.32a18.1,18.1,0,0,1,3.86.4,9.1,9.1,0,0,1,3.2,1.33,6.59,6.59,0,0,1,2.18,2.5,8.5,8.5,0,0,1,.81,3.92,7.91,7.91,0,0,1-1.47,4.83,6.59,6.59,0,0,1-4.29,2.52l6.78,11.33h-7l-5.57-10.72H375v10.72h-5.87Zm5.87,11.1h3.46c.53,0,1.09,0,1.68-.06a5.19,5.19,0,0,0,1.6-.34,2.77,2.77,0,0,0,1.18-.89,2.72,2.72,0,0,0,.47-1.7,2.85,2.85,0,0,0-.41-1.63,2.81,2.81,0,0,0-1.05-.93,4.76,4.76,0,0,0-1.47-.44,12.29,12.29,0,0,0-1.62-.11H375Z" transform="translate(-76.67 -162.73)"/><path class="cls-1" d="M407.06,186a4.17,4.17,0,0,0-1.94-1.34,6.94,6.94,0,0,0-2.32-.44,6,6,0,0,0-1.31.15,5.09,5.09,0,0,0-1.28.47,2.84,2.84,0,0,0-1,.85,2.18,2.18,0,0,0-.37,1.29,2.14,2.14,0,0,0,.9,1.86,8.5,8.5,0,0,0,2.28,1.1c.92.3,1.9.61,3,.91a12.12,12.12,0,0,1,3,1.29,7.05,7.05,0,0,1,2.28,2.24,6.87,6.87,0,0,1,.9,3.75,8.68,8.68,0,0,1-.83,3.9,8,8,0,0,1-2.24,2.77,9.5,9.5,0,0,1-3.27,1.63,14.32,14.32,0,0,1-3.94.53,14.16,14.16,0,0,1-4.82-.8,12,12,0,0,1-4.14-2.58l4.18-4.62a6.11,6.11,0,0,0,2.28,1.88,6.46,6.46,0,0,0,2.84.66,6.36,6.36,0,0,0,1.45-.17,4.72,4.72,0,0,0,1.32-.51,2.87,2.87,0,0,0,.94-.87,2.19,2.19,0,0,0,.36-1.25,2.28,2.28,0,0,0-.92-1.91,8.38,8.38,0,0,0-2.31-1.19c-.93-.33-1.93-.66-3-1a13.43,13.43,0,0,1-3-1.33,7.24,7.24,0,0,1-2.31-2.2,6.33,6.33,0,0,1-.92-3.6,8.12,8.12,0,0,1,.85-3.79,8.26,8.26,0,0,1,2.26-2.73,9.85,9.85,0,0,1,3.26-1.65,13.27,13.27,0,0,1,3.8-.55,14.86,14.86,0,0,1,4.37.64,10.11,10.11,0,0,1,3.8,2.16Z" transform="translate(-76.67 -162.73)"/><polygon class="cls-1" points="339.2 16.71 345.07 16.71 345.07 26.72 356.48 26.72 356.48 16.71 362.35 16.71 362.35 43.55 356.48 43.55 356.48 31.95 345.07 31.95 345.07 43.55 339.2 43.55 339.2 16.71"/><rect class="cls-1" x="368.07" y="16.71" width="5.87" height="26.83"/><path class="cls-1" d="M456.33,179.44h10.32a18.1,18.1,0,0,1,3.86.4,9.1,9.1,0,0,1,3.2,1.33,6.59,6.59,0,0,1,2.18,2.5,8.5,8.5,0,0,1,.81,3.92,7.91,7.91,0,0,1-1.47,4.83,6.59,6.59,0,0,1-4.29,2.52l6.78,11.33h-7l-5.57-10.72h-2.9v10.72h-5.87Zm5.87,11.1h3.46c.53,0,1.09,0,1.68-.06a5.19,5.19,0,0,0,1.6-.34,2.77,2.77,0,0,0,1.18-.89,2.72,2.72,0,0,0,.47-1.7,2.85,2.85,0,0,0-.41-1.63,2.81,2.81,0,0,0-1.05-.93,4.76,4.76,0,0,0-1.47-.44,12.29,12.29,0,0,0-1.62-.11H462.2Z" transform="translate(-76.67 -162.73)"/><polygon class="cls-1" points="404.66 16.71 404.66 43.55 423.44 43.55 423.44 38.09 410.53 38.09 410.53 32.63 422.09 32.63 422.09 27.17 410.53 27.17 410.53 22.17 422.76 22.17 422.76 16.71 404.66 16.71"/><path class="cls-1" d="M166.2,220.84a4.69,4.69,0,0,0-1.79-1.44,5.25,5.25,0,0,0-2.24-.5,5.84,5.84,0,0,0-4.51,2,6.73,6.73,0,0,0-1.26,2.19,7.89,7.89,0,0,0-.45,2.69,7.53,7.53,0,0,0,.42,2.54,6.39,6.39,0,0,0,1.23,2.11,5.74,5.74,0,0,0,2,1.44,6.22,6.22,0,0,0,2.62.53,5.11,5.11,0,0,0,2.52-.6,5.44,5.44,0,0,0,1.84-1.68l1.91,1.46a7.48,7.48,0,0,1-.66.75,6.59,6.59,0,0,1-1.25,1,8.93,8.93,0,0,1-1.88.86,7.93,7.93,0,0,1-2.53.37,8.14,8.14,0,0,1-3.57-.76,8.61,8.61,0,0,1-2.71-2,8.78,8.78,0,0,1-1.71-2.81,8.91,8.91,0,0,1-.59-3.17,10,10,0,0,1,.64-3.63A8.54,8.54,0,0,1,156,219.3a7.92,7.92,0,0,1,2.75-1.88,9.11,9.11,0,0,1,3.54-.67,8.58,8.58,0,0,1,3.24.65,6.07,6.07,0,0,1,2.6,2Z" transform="translate(-76.67 -162.73)"/><path class="cls-1" d="M183.2,234.55a8.84,8.84,0,0,1-3.51-.68,8.16,8.16,0,0,1-2.75-1.88,8.69,8.69,0,0,1-1.79-2.83,9.9,9.9,0,0,1,0-7,8.72,8.72,0,0,1,1.79-2.83,8.16,8.16,0,0,1,2.75-1.88,9.35,9.35,0,0,1,7,0,8.16,8.16,0,0,1,2.75,1.88,8.68,8.68,0,0,1,1.79,2.83,9.9,9.9,0,0,1,0,7,8.65,8.65,0,0,1-1.79,2.83,8.16,8.16,0,0,1-2.75,1.88,8.85,8.85,0,0,1-3.51.68m0-2.15a6,6,0,0,0,4.57-2,6.39,6.39,0,0,0,1.27-2.14,7.9,7.9,0,0,0,0-5.24,6.39,6.39,0,0,0-1.27-2.14,6.19,6.19,0,0,0-9.15,0,6.39,6.39,0,0,0-1.27,2.14,7.9,7.9,0,0,0,0,5.24,6.39,6.39,0,0,0,1.27,2.14,6,6,0,0,0,4.57,2" transform="translate(-76.67 -162.73)"/><path class="cls-1" d="M201.47,217.18v10.39a6.76,6.76,0,0,0,.21,1.64,4.86,4.86,0,0,0,.71,1.57,3.85,3.85,0,0,0,1.3,1.17,4.53,4.53,0,0,0,4,0,3.87,3.87,0,0,0,1.3-1.17,4.82,4.82,0,0,0,.71-1.57,6.76,6.76,0,0,0,.21-1.64V217.18h2.26v10.75a7,7,0,0,1-.5,2.69,6.38,6.38,0,0,1-1.37,2.09,6.09,6.09,0,0,1-2,1.37,7,7,0,0,1-5.09,0,6,6,0,0,1-2-1.37,6.35,6.35,0,0,1-1.37-2.09,7.07,7.07,0,0,1-.49-2.69V217.18Z" transform="translate(-76.67 -162.73)"/><polygon class="cls-1" points="143.8 54.45 146.77 54.45 155.97 68.38 156.01 68.38 156.01 54.45 158.28 54.45 158.28 71.39 155.4 71.39 146.11 57.47 146.06 57.47 146.06 71.39 143.8 71.39 143.8 54.45"/><polygon class="cls-1" points="170.42 56.6 165.04 56.6 165.04 54.45 178.06 54.45 178.06 56.6 172.68 56.6 172.68 71.39 170.42 71.39 170.42 56.6"/><polygon class="cls-1" points="188.76 64.17 182.44 54.45 185.34 54.45 189.89 61.9 194.58 54.45 197.34 54.45 191.02 64.17 191.02 71.4 188.76 71.4 188.76 64.17"/><path class="cls-1" d="M302.81,220.84A4.69,4.69,0,0,0,301,219.4a5.25,5.25,0,0,0-2.24-.5,5.84,5.84,0,0,0-4.51,2A6.73,6.73,0,0,0,293,223.1a7.89,7.89,0,0,0-.45,2.69,7.53,7.53,0,0,0,.42,2.54,6.39,6.39,0,0,0,1.23,2.11,5.74,5.74,0,0,0,2,1.44,6.22,6.22,0,0,0,2.62.53,5.11,5.11,0,0,0,2.52-.6,5.44,5.44,0,0,0,1.84-1.68l1.91,1.46a7.48,7.48,0,0,1-.66.75,6.59,6.59,0,0,1-1.25,1,8.93,8.93,0,0,1-1.88.86,7.93,7.93,0,0,1-2.53.37,8.12,8.12,0,0,1-3.57-.76,8.6,8.6,0,0,1-2.71-2,8.78,8.78,0,0,1-1.71-2.81,8.91,8.91,0,0,1-.59-3.17,10,10,0,0,1,.64-3.63,8.54,8.54,0,0,1,1.78-2.87,7.92,7.92,0,0,1,2.75-1.88,9.11,9.11,0,0,1,3.54-.67,8.58,8.58,0,0,1,3.24.65,6.07,6.07,0,0,1,2.6,2Z" transform="translate(-76.67 -162.73)"/><path class="cls-1" d="M312.15,217.17H318a6.79,6.79,0,0,1,2.64.44,4.47,4.47,0,0,1,1.64,1.13,3.82,3.82,0,0,1,.84,1.53,6.13,6.13,0,0,1,.24,1.64,4.46,4.46,0,0,1-1.1,2.93,4.68,4.68,0,0,1-1.29,1,4.45,4.45,0,0,1-1.71.51l4.74,7.73h-2.83l-4.24-7.47h-2.52v7.47h-2.26Zm2.26,7.47h3a7.82,7.82,0,0,0,1.31-.11,3.45,3.45,0,0,0,1.16-.39,2.14,2.14,0,0,0,.81-.82,3.36,3.36,0,0,0,0-2.8,2.14,2.14,0,0,0-.81-.83,3.5,3.5,0,0,0-1.16-.4,7.82,7.82,0,0,0-1.31-.1h-3Z" transform="translate(-76.67 -162.73)"/><rect class="cls-1" x="254.25" y="54.45" width="2.26" height="16.94"/><path class="cls-1" d="M353.45,220.84a4.71,4.71,0,0,0-1.79-1.44,5.28,5.28,0,0,0-2.24-.5,5.84,5.84,0,0,0-4.51,2,6.73,6.73,0,0,0-1.26,2.19,7.89,7.89,0,0,0-.45,2.69,7.53,7.53,0,0,0,.42,2.54,6.39,6.39,0,0,0,1.23,2.11,5.74,5.74,0,0,0,2,1.44,6.22,6.22,0,0,0,2.62.53,5.11,5.11,0,0,0,2.52-.6,5.44,5.44,0,0,0,1.84-1.68l1.91,1.46a7.2,7.2,0,0,1-.66.75,6.52,6.52,0,0,1-1.25,1,8.93,8.93,0,0,1-1.88.86,7.93,7.93,0,0,1-2.53.37,8.12,8.12,0,0,1-3.57-.76,8.6,8.6,0,0,1-2.71-2,8.78,8.78,0,0,1-1.71-2.81,8.91,8.91,0,0,1-.59-3.17,10.07,10.07,0,0,1,.64-3.63,8.58,8.58,0,0,1,1.78-2.87,7.92,7.92,0,0,1,2.75-1.88,9.11,9.11,0,0,1,3.54-.67,8.58,8.58,0,0,1,3.24.65,6.08,6.08,0,0,1,2.6,2Z" transform="translate(-76.67 -162.73)"/><polygon class="cls-1" points="286.12 54.45 288.38 54.45 288.38 61.78 288.57 61.78 295.95 54.45 299.11 54.45 291.05 62.28 299.65 71.39 296.35 71.39 288.57 62.92 288.38 62.92 288.38 71.39 286.12 71.39 286.12 54.45"/><polygon class="cls-1" points="305.76 54.45 316.53 54.45 316.53 56.6 308.02 56.6 308.02 61.66 315.94 61.66 315.94 63.81 308.02 63.81 308.02 69.24 316.96 69.24 316.96 71.39 305.76 71.39 305.76 54.45"/><polygon class="cls-1" points="328.01 56.6 322.64 56.6 322.64 54.45 335.65 54.45 335.65 56.6 330.27 56.6 330.27 71.39 328.01 71.39 328.01 56.6"/><path class="cls-1" d="M441.62,220.84a4.71,4.71,0,0,0-1.79-1.44,5.28,5.28,0,0,0-2.24-.5,5.84,5.84,0,0,0-4.51,2,6.73,6.73,0,0,0-1.26,2.19,7.89,7.89,0,0,0-.45,2.69,7.53,7.53,0,0,0,.42,2.54,6.39,6.39,0,0,0,1.23,2.11,5.74,5.74,0,0,0,2,1.44,6.22,6.22,0,0,0,2.62.53,5.11,5.11,0,0,0,2.52-.6,5.44,5.44,0,0,0,1.84-1.68l1.91,1.46a7.2,7.2,0,0,1-.66.75,6.52,6.52,0,0,1-1.25,1,8.93,8.93,0,0,1-1.88.86,7.93,7.93,0,0,1-2.53.37,8.12,8.12,0,0,1-3.57-.76,8.6,8.6,0,0,1-2.71-2,8.78,8.78,0,0,1-1.71-2.81,8.91,8.91,0,0,1-.59-3.17,10.07,10.07,0,0,1,.64-3.63,8.58,8.58,0,0,1,1.78-2.87,7.92,7.92,0,0,1,2.75-1.88,9.11,9.11,0,0,1,3.54-.67,8.59,8.59,0,0,1,3.24.65,6.08,6.08,0,0,1,2.6,2Z" transform="translate(-76.67 -162.73)"/><polygon class="cls-1" points="374.29 54.45 376.55 54.45 376.55 69.24 384.22 69.24 384.22 71.39 374.29 71.39 374.29 54.45"/><path class="cls-1" d="M469.51,217.18v10.39a6.65,6.65,0,0,0,.21,1.64,4.86,4.86,0,0,0,.71,1.57,3.86,3.86,0,0,0,1.3,1.17,4.53,4.53,0,0,0,4,0,3.82,3.82,0,0,0,1.29-1.17,4.77,4.77,0,0,0,.71-1.57,6.77,6.77,0,0,0,.21-1.64V217.18h2.26v10.75a7,7,0,0,1-.5,2.69,6.38,6.38,0,0,1-1.37,2.09,6.07,6.07,0,0,1-2,1.37,7,7,0,0,1-5.09,0,6,6,0,0,1-2-1.37,6.35,6.35,0,0,1-1.37-2.09,7.07,7.07,0,0,1-.49-2.69V217.18Z" transform="translate(-76.67 -162.73)"/><path class="cls-1" d="M488.51,217.18h5.8a7.49,7.49,0,0,1,2,.26,4.77,4.77,0,0,1,1.6.78,3.59,3.59,0,0,1,1.06,1.32,4.26,4.26,0,0,1,.39,1.88,3.49,3.49,0,0,1-.8,2.38,4.69,4.69,0,0,1-2.07,1.35v0a3.52,3.52,0,0,1,1.41.39,3.93,3.93,0,0,1,1.15.91,4.35,4.35,0,0,1,.76,1.3,4.47,4.47,0,0,1,.28,1.6,4.26,4.26,0,0,1-.46,2,4.3,4.3,0,0,1-1.26,1.47,5.85,5.85,0,0,1-1.86.91,8.1,8.1,0,0,1-2.29.31h-5.73Zm2.26,7h3.09a5.37,5.37,0,0,0,1.2-.13,2.63,2.63,0,0,0,1-.45,2.27,2.27,0,0,0,.67-.79,2.54,2.54,0,0,0,.25-1.17,2.59,2.59,0,0,0-.64-1.75,2.49,2.49,0,0,0-2-.74h-3.56Zm0,7.9h3.33a6.65,6.65,0,0,0,1.14-.11,3.33,3.33,0,0,0,1.17-.43,2.91,2.91,0,0,0,.92-.87,2.54,2.54,0,0,0,.38-1.46,2.69,2.69,0,0,0-1-2.26,4.12,4.12,0,0,0-2.62-.76h-3.35Z" transform="translate(-76.67 -162.73)"/><path class="cls-1" d="M139.22,168.24s-17.42,10.1-30.3-2.23v-.09l-.05,0,0,0V166c-12.88,12.33-30.3,2.23-30.3,2.23l.71,38.48S78,233.59,108.82,243.15v0l0,0,.05,0v0c30.8-9.56,29.59-36.43,29.59-36.43Z" transform="translate(-76.67 -162.73)"/><path class="cls-2" d="M100.67,178.44s3.33-.33,2.75.59c-.26.33-1.64.26-1.64.46a8.17,8.17,0,0,1-1.63,5.92c-.85,1.26-.59,5.4-1.37,6.78a3.63,3.63,0,0,1-4,2,3.68,3.68,0,0,1-3.14-2.7,4.55,4.55,0,0,1-4.32-1.65,4.89,4.89,0,0,1-.33-5.46c1.11-2,3.33-2.3,5.43-2.64,3.86-.59,4.12-3.88,8.11-3.16" transform="translate(-76.67 -162.73)"/><path class="cls-2" d="M129.78,178.44s3.33-.33,2.75.59c-.26.33-1.64.26-1.64.46a8.17,8.17,0,0,1-1.63,5.92c-.85,1.26-.59,5.4-1.37,6.78a3.63,3.63,0,0,1-4,2,3.68,3.68,0,0,1-3.14-2.7,4.55,4.55,0,0,1-4.32-1.65,4.89,4.89,0,0,1-.33-5.46c1.11-2,3.33-2.3,5.43-2.64,3.86-.59,4.12-3.88,8.11-3.16" transform="translate(-76.67 -162.73)"/><path class="cls-2" d="M114.67,211.89s3.34-.33,2.75.53c-.26.39-1.63.26-1.63.46a8,8,0,0,1-1.64,6c-.85,1.19-.52,5.4-1.37,6.78a3.74,3.74,0,0,1-4,2,3.65,3.65,0,0,1-3.08-2.7,4.7,4.7,0,0,1-4.71-7.11c1.11-2,3.33-2.3,5.43-2.63,3.86-.59,4.19-4,8.11-3.23" transform="translate(-76.67 -162.73)"/><rect class="cls-3" x="2.6" y="42.83" width="59.16" height="0.73"/><rect class="cls-3" x="2.67" y="40.8" width="59.17" height="0.74"/><rect class="cls-3" x="2.67" y="38.71" width="59.17" height="0.74"/><rect class="cls-3" x="2.6" y="36.68" width="59.24" height="0.74"/><rect class="cls-3" x="2.54" y="34.6" width="59.24" height="0.74"/><path class="cls-4" d="M108.89,162.73c-15.6,14.79-32.22,1.42-32.22,1.42s2.39,42.39,3,50c.72,9.69,9.17,23.4,29.27,31,20.1-7.57,28.55-21.28,29.27-31,.56-7.59,2.95-50,2.95-50s-16.62,13.37-32.22-1.42m0,78.93c-30-10.26-29.54-33.08-29.54-36.1s.75-34.39.75-34.39,16.3,9.5,28.79-1.73c12.49,11.23,28.79,1.73,28.79,1.73s.75,31.36.75,34.39.42,25.84-29.54,36.1" transform="translate(-76.67 -162.73)"/><polygon class="cls-1" points="76.87 16.71 83.27 16.71 87.53 33.92 87.6 33.92 93.17 16.71 98.63 16.71 104.16 34.38 104.24 34.38 108.72 16.71 114.67 16.71 106.87 43.55 101.64 43.55 95.77 24.98 95.69 24.98 89.82 43.55 84.78 43.55 76.87 16.71"/><path class="cls-1" d="M192.91,192.85A15.23,15.23,0,0,1,194,187a12.78,12.78,0,0,1,3-4.45,13.12,13.12,0,0,1,4.56-2.82,17.31,17.31,0,0,1,11.52,0,13.16,13.16,0,0,1,4.56,2.82,12.8,12.8,0,0,1,3,4.45,16.39,16.39,0,0,1,0,11.68,12.85,12.85,0,0,1-3,4.45,13.16,13.16,0,0,1-4.56,2.82,17.31,17.31,0,0,1-11.52,0,13.12,13.12,0,0,1-4.56-2.82,12.82,12.82,0,0,1-3-4.45,15.23,15.23,0,0,1-1.07-5.84m6.1,0a9.86,9.86,0,0,0,.58,3.47,7.94,7.94,0,0,0,1.67,2.73,7.69,7.69,0,0,0,2.62,1.8,9.3,9.3,0,0,0,6.81,0,7.62,7.62,0,0,0,2.62-1.8,7.94,7.94,0,0,0,1.68-2.73,10.52,10.52,0,0,0,0-6.91,7.9,7.9,0,0,0-1.68-2.75,7.62,7.62,0,0,0-2.62-1.8,9.3,9.3,0,0,0-6.81,0,7.69,7.69,0,0,0-2.62,1.8,7.89,7.89,0,0,0-1.67,2.75,9.91,9.91,0,0,0-.58,3.45" transform="translate(-76.67 -162.73)"/><path class="cls-1" d="M226,179.44h10.32a18.09,18.09,0,0,1,3.86.4,9.1,9.1,0,0,1,3.2,1.33,6.57,6.57,0,0,1,2.18,2.5,8.5,8.5,0,0,1,.81,3.92,7.9,7.9,0,0,1-1.47,4.83,6.59,6.59,0,0,1-4.29,2.52l6.77,11.33h-7l-5.57-10.72h-2.9v10.72H226Zm5.87,11.1h3.46c.53,0,1.09,0,1.68-.06a5.19,5.19,0,0,0,1.6-.34,2.77,2.77,0,0,0,1.19-.89,2.73,2.73,0,0,0,.47-1.7,2.85,2.85,0,0,0-.41-1.63,2.81,2.81,0,0,0-1.05-.93,4.75,4.75,0,0,0-1.47-.44,12.41,12.41,0,0,0-1.62-.11h-3.84Z" transform="translate(-76.67 -162.73)"/><path class="cls-1" d="M268.24,186.41a5.77,5.77,0,0,0-2.13-1.63,7,7,0,0,0-2.92-.57,7.28,7.28,0,0,0-3.07.64,7.38,7.38,0,0,0-2.45,1.8,8.41,8.41,0,0,0-1.62,2.75,10.52,10.52,0,0,0,0,6.91,8.57,8.57,0,0,0,1.6,2.73,7.18,7.18,0,0,0,2.39,1.8,6.87,6.87,0,0,0,3,.64,6.6,6.6,0,0,0,3.2-.76,6.4,6.4,0,0,0,2.29-2.12l4.89,3.68a10.22,10.22,0,0,1-4.29,3.52,13.22,13.22,0,0,1-5.35,1.14,16.32,16.32,0,0,1-5.76-1,13.12,13.12,0,0,1-4.55-2.82,12.79,12.79,0,0,1-3-4.45,16.38,16.38,0,0,1,0-11.67,12.79,12.79,0,0,1,3-4.45,13.16,13.16,0,0,1,4.55-2.82,16.32,16.32,0,0,1,5.76-1,14,14,0,0,1,2.35.21,12.81,12.81,0,0,1,2.41.66,11,11,0,0,1,2.28,1.21,9.17,9.17,0,0,1,2,1.86Z" transform="translate(-76.67 -162.73)"/><polygon class="cls-1" points="200.53 16.71 218.63 16.71 218.63 22.17 206.4 22.17 206.4 27.17 217.96 27.17 217.96 32.63 206.4 32.63 206.4 38.09 219.31 38.09 219.31 43.55 200.53 43.55 200.53 16.71"/><path class="cls-1" d="M314.23,186a4.16,4.16,0,0,0-1.94-1.34,7,7,0,0,0-2.32-.44,6,6,0,0,0-1.31.15,5,5,0,0,0-1.28.47,2.83,2.83,0,0,0-1,.85A2.18,2.18,0,0,0,306,187a2.14,2.14,0,0,0,.9,1.86,8.52,8.52,0,0,0,2.28,1.1c.92.3,1.9.61,3,.91a12.2,12.2,0,0,1,3,1.29,7,7,0,0,1,2.28,2.24,6.83,6.83,0,0,1,.9,3.75,8.68,8.68,0,0,1-.83,3.9,8,8,0,0,1-2.24,2.77,9.48,9.48,0,0,1-3.27,1.63A14.31,14.31,0,0,1,308,207a14.16,14.16,0,0,1-4.82-.8,12,12,0,0,1-4.14-2.58l4.18-4.62a6.15,6.15,0,0,0,2.28,1.88,6.48,6.48,0,0,0,2.84.66,6.36,6.36,0,0,0,1.45-.17,4.77,4.77,0,0,0,1.32-.51,2.88,2.88,0,0,0,.94-.87,2.19,2.19,0,0,0,.36-1.25,2.27,2.27,0,0,0-.92-1.91,8.38,8.38,0,0,0-2.31-1.19c-.93-.33-1.93-.66-3-1a13.45,13.45,0,0,1-3-1.33,7.24,7.24,0,0,1-2.31-2.2,6.33,6.33,0,0,1-.92-3.6,8.12,8.12,0,0,1,.84-3.79A8.29,8.29,0,0,1,303,181a9.87,9.87,0,0,1,3.26-1.65,13.29,13.29,0,0,1,3.8-.55,14.86,14.86,0,0,1,4.37.64,10.14,10.14,0,0,1,3.8,2.16Z" transform="translate(-76.67 -162.73)"/><polygon class="cls-1" points="251.53 21.94 243.93 21.94 243.93 16.71 265.01 16.71 265.01 21.94 257.4 21.94 257.4 43.54 251.53 43.54 251.53 21.94"/><polygon class="cls-1" points="268.58 16.71 286.69 16.71 286.69 22.17 274.46 22.17 274.46 27.17 286.01 27.17 286.01 32.63 274.46 32.63 274.46 38.09 287.37 38.09 287.37 43.55 268.58 43.55 268.58 16.71"/><path class="cls-1" d="M369.11,179.44h10.32a18.1,18.1,0,0,1,3.86.4,9.1,9.1,0,0,1,3.2,1.33,6.59,6.59,0,0,1,2.18,2.5,8.5,8.5,0,0,1,.81,3.92,7.91,7.91,0,0,1-1.47,4.83,6.59,6.59,0,0,1-4.29,2.52l6.78,11.33h-7l-5.57-10.72H375v10.72h-5.87Zm5.87,11.1h3.46c.53,0,1.09,0,1.68-.06a5.19,5.19,0,0,0,1.6-.34,2.77,2.77,0,0,0,1.18-.89,2.72,2.72,0,0,0,.47-1.7,2.85,2.85,0,0,0-.41-1.63,2.81,2.81,0,0,0-1.05-.93,4.76,4.76,0,0,0-1.47-.44,12.29,12.29,0,0,0-1.62-.11H375Z" transform="translate(-76.67 -162.73)"/><path class="cls-1" d="M407.06,186a4.17,4.17,0,0,0-1.94-1.34,6.94,6.94,0,0,0-2.32-.44,6,6,0,0,0-1.31.15,5.09,5.09,0,0,0-1.28.47,2.84,2.84,0,0,0-1,.85,2.18,2.18,0,0,0-.37,1.29,2.14,2.14,0,0,0,.9,1.86,8.5,8.5,0,0,0,2.28,1.1c.92.3,1.9.61,3,.91a12.12,12.12,0,0,1,3,1.29,7.05,7.05,0,0,1,2.28,2.24,6.87,6.87,0,0,1,.9,3.75,8.68,8.68,0,0,1-.83,3.9,8,8,0,0,1-2.24,2.77,9.5,9.5,0,0,1-3.27,1.63,14.32,14.32,0,0,1-3.94.53,14.16,14.16,0,0,1-4.82-.8,12,12,0,0,1-4.14-2.58l4.18-4.62a6.11,6.11,0,0,0,2.28,1.88,6.46,6.46,0,0,0,2.84.66,6.36,6.36,0,0,0,1.45-.17,4.72,4.72,0,0,0,1.32-.51,2.87,2.87,0,0,0,.94-.87,2.19,2.19,0,0,0,.36-1.25,2.28,2.28,0,0,0-.92-1.91,8.38,8.38,0,0,0-2.31-1.19c-.93-.33-1.93-.66-3-1a13.43,13.43,0,0,1-3-1.33,7.24,7.24,0,0,1-2.31-2.2,6.33,6.33,0,0,1-.92-3.6,8.12,8.12,0,0,1,.85-3.79,8.26,8.26,0,0,1,2.26-2.73,9.85,9.85,0,0,1,3.26-1.65,13.27,13.27,0,0,1,3.8-.55,14.86,14.86,0,0,1,4.37.64,10.11,10.11,0,0,1,3.8,2.16Z" transform="translate(-76.67 -162.73)"/><polygon class="cls-1" points="339.2 16.71 345.07 16.71 345.07 26.72 356.48 26.72 356.48 16.71 362.35 16.71 362.35 43.55 356.48 43.55 356.48 31.95 345.07 31.95 345.07 43.55 339.2 43.55 339.2 16.71"/><rect class="cls-1" x="368.07" y="16.71" width="5.87" height="26.83"/><path class="cls-1" d="M456.33,179.44h10.32a18.1,18.1,0,0,1,3.86.4,9.1,9.1,0,0,1,3.2,1.33,6.59,6.59,0,0,1,2.18,2.5,8.5,8.5,0,0,1,.81,3.92,7.91,7.91,0,0,1-1.47,4.83,6.59,6.59,0,0,1-4.29,2.52l6.78,11.33h-7l-5.57-10.72h-2.9v10.72h-5.87Zm5.87,11.1h3.46c.53,0,1.09,0,1.68-.06a5.19,5.19,0,0,0,1.6-.34,2.77,2.77,0,0,0,1.18-.89,2.72,2.72,0,0,0,.47-1.7,2.85,2.85,0,0,0-.41-1.63,2.81,2.81,0,0,0-1.05-.93,4.76,4.76,0,0,0-1.47-.44,12.29,12.29,0,0,0-1.62-.11H462.2Z" transform="translate(-76.67 -162.73)"/><polygon class="cls-1" points="404.66 16.71 404.66 43.55 423.44 43.55 423.44 38.09 410.53 38.09 410.53 32.63 422.09 32.63 422.09 27.17 410.53 27.17 410.53 22.17 422.76 22.17 422.76 16.71 404.66 16.71"/><path class="cls-1" d="M166.2,220.84a4.69,4.69,0,0,0-1.79-1.44,5.25,5.25,0,0,0-2.24-.5,5.84,5.84,0,0,0-4.51,2,6.73,6.73,0,0,0-1.26,2.19,7.89,7.89,0,0,0-.45,2.69,7.53,7.53,0,0,0,.42,2.54,6.39,6.39,0,0,0,1.23,2.11,5.74,5.74,0,0,0,2,1.44,6.22,6.22,0,0,0,2.62.53,5.11,5.11,0,0,0,2.52-.6,5.44,5.44,0,0,0,1.84-1.68l1.91,1.46a7.48,7.48,0,0,1-.66.75,6.59,6.59,0,0,1-1.25,1,8.93,8.93,0,0,1-1.88.86,7.93,7.93,0,0,1-2.53.37,8.14,8.14,0,0,1-3.57-.76,8.61,8.61,0,0,1-2.71-2,8.78,8.78,0,0,1-1.71-2.81,8.91,8.91,0,0,1-.59-3.17,10,10,0,0,1,.64-3.63A8.54,8.54,0,0,1,156,219.3a7.92,7.92,0,0,1,2.75-1.88,9.11,9.11,0,0,1,3.54-.67,8.58,8.58,0,0,1,3.24.65,6.07,6.07,0,0,1,2.6,2Z" transform="translate(-76.67 -162.73)"/><path class="cls-1" d="M183.2,234.55a8.84,8.84,0,0,1-3.51-.68,8.16,8.16,0,0,1-2.75-1.88,8.69,8.69,0,0,1-1.79-2.83,9.9,9.9,0,0,1,0-7,8.72,8.72,0,0,1,1.79-2.83,8.16,8.16,0,0,1,2.75-1.88,9.35,9.35,0,0,1,7,0,8.16,8.16,0,0,1,2.75,1.88,8.68,8.68,0,0,1,1.79,2.83,9.9,9.9,0,0,1,0,7,8.65,8.65,0,0,1-1.79,2.83,8.16,8.16,0,0,1-2.75,1.88,8.85,8.85,0,0,1-3.51.68m0-2.15a6,6,0,0,0,4.57-2,6.39,6.39,0,0,0,1.27-2.14,7.9,7.9,0,0,0,0-5.24,6.39,6.39,0,0,0-1.27-2.14,6.19,6.19,0,0,0-9.15,0,6.39,6.39,0,0,0-1.27,2.14,7.9,7.9,0,0,0,0,5.24,6.39,6.39,0,0,0,1.27,2.14,6,6,0,0,0,4.57,2" transform="translate(-76.67 -162.73)"/><path class="cls-1" d="M201.47,217.18v10.39a6.76,6.76,0,0,0,.21,1.64,4.86,4.86,0,0,0,.71,1.57,3.85,3.85,0,0,0,1.3,1.17,4.53,4.53,0,0,0,4,0,3.87,3.87,0,0,0,1.3-1.17,4.82,4.82,0,0,0,.71-1.57,6.76,6.76,0,0,0,.21-1.64V217.18h2.26v10.75a7,7,0,0,1-.5,2.69,6.38,6.38,0,0,1-1.37,2.09,6.09,6.09,0,0,1-2,1.37,7,7,0,0,1-5.09,0,6,6,0,0,1-2-1.37,6.35,6.35,0,0,1-1.37-2.09,7.07,7.07,0,0,1-.49-2.69V217.18Z" transform="translate(-76.67 -162.73)"/><polygon class="cls-1" points="143.8 54.45 146.77 54.45 155.97 68.38 156.01 68.38 156.01 54.45 158.28 54.45 158.28 71.39 155.4 71.39 146.11 57.47 146.06 57.47 146.06 71.39 143.8 71.39 143.8 54.45"/><polygon class="cls-1" points="170.42 56.6 165.04 56.6 165.04 54.45 178.06 54.45 178.06 56.6 172.68 56.6 172.68 71.39 170.42 71.39 170.42 56.6"/><polygon class="cls-1" points="188.76 64.17 182.44 54.45 185.34 54.45 189.89 61.9 194.58 54.45 197.34 54.45 191.02 64.17 191.02 71.4 188.76 71.4 188.76 64.17"/><path class="cls-1" d="M302.81,220.84A4.69,4.69,0,0,0,301,219.4a5.25,5.25,0,0,0-2.24-.5,5.84,5.84,0,0,0-4.51,2A6.73,6.73,0,0,0,293,223.1a7.89,7.89,0,0,0-.45,2.69,7.53,7.53,0,0,0,.42,2.54,6.39,6.39,0,0,0,1.23,2.11,5.74,5.74,0,0,0,2,1.44,6.22,6.22,0,0,0,2.62.53,5.11,5.11,0,0,0,2.52-.6,5.44,5.44,0,0,0,1.84-1.68l1.91,1.46a7.48,7.48,0,0,1-.66.75,6.59,6.59,0,0,1-1.25,1,8.93,8.93,0,0,1-1.88.86,7.93,7.93,0,0,1-2.53.37,8.12,8.12,0,0,1-3.57-.76,8.6,8.6,0,0,1-2.71-2,8.78,8.78,0,0,1-1.71-2.81,8.91,8.91,0,0,1-.59-3.17,10,10,0,0,1,.64-3.63,8.54,8.54,0,0,1,1.78-2.87,7.92,7.92,0,0,1,2.75-1.88,9.11,9.11,0,0,1,3.54-.67,8.58,8.58,0,0,1,3.24.65,6.07,6.07,0,0,1,2.6,2Z" transform="translate(-76.67 -162.73)"/><path class="cls-1" d="M312.15,217.17H318a6.79,6.79,0,0,1,2.64.44,4.47,4.47,0,0,1,1.64,1.13,3.82,3.82,0,0,1,.84,1.53,6.13,6.13,0,0,1,.24,1.64,4.46,4.46,0,0,1-1.1,2.93,4.68,4.68,0,0,1-1.29,1,4.45,4.45,0,0,1-1.71.51l4.74,7.73h-2.83l-4.24-7.47h-2.52v7.47h-2.26Zm2.26,7.47h3a7.82,7.82,0,0,0,1.31-.11,3.45,3.45,0,0,0,1.16-.39,2.14,2.14,0,0,0,.81-.82,3.36,3.36,0,0,0,0-2.8,2.14,2.14,0,0,0-.81-.83,3.5,3.5,0,0,0-1.16-.4,7.82,7.82,0,0,0-1.31-.1h-3Z" transform="translate(-76.67 -162.73)"/><rect class="cls-1" x="254.25" y="54.45" width="2.26" height="16.94"/><path class="cls-1" d="M353.45,220.84a4.71,4.71,0,0,0-1.79-1.44,5.28,5.28,0,0,0-2.24-.5,5.84,5.84,0,0,0-4.51,2,6.73,6.73,0,0,0-1.26,2.19,7.89,7.89,0,0,0-.45,2.69,7.53,7.53,0,0,0,.42,2.54,6.39,6.39,0,0,0,1.23,2.11,5.74,5.74,0,0,0,2,1.44,6.22,6.22,0,0,0,2.62.53,5.11,5.11,0,0,0,2.52-.6,5.44,5.44,0,0,0,1.84-1.68l1.91,1.46a7.2,7.2,0,0,1-.66.75,6.52,6.52,0,0,1-1.25,1,8.93,8.93,0,0,1-1.88.86,7.93,7.93,0,0,1-2.53.37,8.12,8.12,0,0,1-3.57-.76,8.6,8.6,0,0,1-2.71-2,8.78,8.78,0,0,1-1.71-2.81,8.91,8.91,0,0,1-.59-3.17,10.07,10.07,0,0,1,.64-3.63,8.58,8.58,0,0,1,1.78-2.87,7.92,7.92,0,0,1,2.75-1.88,9.11,9.11,0,0,1,3.54-.67,8.58,8.58,0,0,1,3.24.65,6.08,6.08,0,0,1,2.6,2Z" transform="translate(-76.67 -162.73)"/><polygon class="cls-1" points="286.12 54.45 288.38 54.45 288.38 61.78 288.57 61.78 295.95 54.45 299.11 54.45 291.05 62.28 299.65 71.39 296.35 71.39 288.57 62.92 288.38 62.92 288.38 71.39 286.12 71.39 286.12 54.45"/><polygon class="cls-1" points="305.76 54.45 316.53 54.45 316.53 56.6 308.02 56.6 308.02 61.66 315.94 61.66 315.94 63.81 308.02 63.81 308.02 69.24 316.96 69.24 316.96 71.39 305.76 71.39 305.76 54.45"/><polygon class="cls-1" points="328.01 56.6 322.64 56.6 322.64 54.45 335.65 54.45 335.65 56.6 330.27 56.6 330.27 71.39 328.01 71.39 328.01 56.6"/><path class="cls-1" d="M441.62,220.84a4.71,4.71,0,0,0-1.79-1.44,5.28,5.28,0,0,0-2.24-.5,5.84,5.84,0,0,0-4.51,2,6.73,6.73,0,0,0-1.26,2.19,7.89,7.89,0,0,0-.45,2.69,7.53,7.53,0,0,0,.42,2.54,6.39,6.39,0,0,0,1.23,2.11,5.74,5.74,0,0,0,2,1.44,6.22,6.22,0,0,0,2.62.53,5.11,5.11,0,0,0,2.52-.6,5.44,5.44,0,0,0,1.84-1.68l1.91,1.46a7.2,7.2,0,0,1-.66.75,6.52,6.52,0,0,1-1.25,1,8.93,8.93,0,0,1-1.88.86,7.93,7.93,0,0,1-2.53.37,8.12,8.12,0,0,1-3.57-.76,8.6,8.6,0,0,1-2.71-2,8.78,8.78,0,0,1-1.71-2.81,8.91,8.91,0,0,1-.59-3.17,10.07,10.07,0,0,1,.64-3.63,8.58,8.58,0,0,1,1.78-2.87,7.92,7.92,0,0,1,2.75-1.88,9.11,9.11,0,0,1,3.54-.67,8.59,8.59,0,0,1,3.24.65,6.08,6.08,0,0,1,2.6,2Z" transform="translate(-76.67 -162.73)"/><polygon class="cls-1" points="374.29 54.45 376.55 54.45 376.55 69.24 384.22 69.24 384.22 71.39 374.29 71.39 374.29 54.45"/><path class="cls-1" d="M469.51,217.18v10.39a6.65,6.65,0,0,0,.21,1.64,4.86,4.86,0,0,0,.71,1.57,3.86,3.86,0,0,0,1.3,1.17,4.53,4.53,0,0,0,4,0,3.82,3.82,0,0,0,1.29-1.17,4.77,4.77,0,0,0,.71-1.57,6.77,6.77,0,0,0,.21-1.64V217.18h2.26v10.75a7,7,0,0,1-.5,2.69,6.38,6.38,0,0,1-1.37,2.09,6.07,6.07,0,0,1-2,1.37,7,7,0,0,1-5.09,0,6,6,0,0,1-2-1.37,6.35,6.35,0,0,1-1.37-2.09,7.07,7.07,0,0,1-.49-2.69V217.18Z" transform="translate(-76.67 -162.73)"/><path class="cls-1" d="M488.51,217.18h5.8a7.49,7.49,0,0,1,2,.26,4.77,4.77,0,0,1,1.6.78,3.59,3.59,0,0,1,1.06,1.32,4.26,4.26,0,0,1,.39,1.88,3.49,3.49,0,0,1-.8,2.38,4.69,4.69,0,0,1-2.07,1.35v0a3.52,3.52,0,0,1,1.41.39,3.93,3.93,0,0,1,1.15.91,4.35,4.35,0,0,1,.76,1.3,4.47,4.47,0,0,1,.28,1.6,4.26,4.26,0,0,1-.46,2,4.3,4.3,0,0,1-1.26,1.47,5.85,5.85,0,0,1-1.86.91,8.1,8.1,0,0,1-2.29.31h-5.73Zm2.26,7h3.09a5.37,5.37,0,0,0,1.2-.13,2.63,2.63,0,0,0,1-.45,2.27,2.27,0,0,0,.67-.79,2.54,2.54,0,0,0,.25-1.17,2.59,2.59,0,0,0-.64-1.75,2.49,2.49,0,0,0-2-.74h-3.56Zm0,7.9h3.33a6.65,6.65,0,0,0,1.14-.11,3.33,3.33,0,0,0,1.17-.43,2.91,2.91,0,0,0,.92-.87,2.54,2.54,0,0,0,.38-1.46,2.69,2.69,0,0,0-1-2.26,4.12,4.12,0,0,0-2.62-.76h-3.35Z" transform="translate(-76.67 -162.73)"/></svg>