<svg id="0333e232-a58f-4b14-8bb6-333aa759aba8" data-name="Layer 1" xmlns="http://www.w3.org/2000/svg" viewBox="0 0 1260.1 617.6"><title>nr-logo</title><path d="M1021.4,217.7a6.2,6.2,0,0,0-8-3.5,5.9,5.9,0,0,0-3.7,7.7,6.2,6.2,0,0,0,8,3.5,5.9,5.9,0,0,0,3.7-7.7m10.3,15.4c-16.5,14.6,8.2,53.6-6.3,94.7-11.7,33.1-42.6,52.5-97.8,52.5l-62.5,54.9H825.9l62.6-54.9H830.3L958,268.3l9.1-27.8a8.3,8.3,0,0,1,.4-1.5h0c3.4-12.4,13.8-23.8,27.2-28.4,8.4-2.9,17.4-3.9,24.8-2.5l33.8,6.2c-.1,0-5,4.2-21.6,18.9M872.8,385.7H833.6l-62.5,54.9h39.2Z" transform="translate(-281 -207.4)" style="fill:#fff"/><path d="M361.6,607.7c0-8.6-6.4-13.9-20.8-13.9H308.4v28.1h33.3c12.4,0,19.9-4.4,19.9-13.9Zm-7.2-51.1c0-8.4-6.6-13.1-18.4-13.1H308.3v27h25.9c12.4,0,20.2-4,20.2-13.5Zm-12.7,89.9H281V518.9h59.2c26.1,0,42.1,12.9,42.1,33v.4c0,14.4-7.7,22.4-16.8,27.5,14.8,5.7,23.9,14.2,23.9,31.3v.4c0,23.3-18.9,35-47.7,35" transform="translate(-281 -207.4)" style="fill:#fff"/><polygon points="131.6 439.1 131.6 311.5 159.6 311.5 159.6 413.6 223.3 413.6 223.3 439.1 131.6 439.1" style="fill:#fff"/><path d="M592.6,551.7l-16.9,41.4h33.9Zm38.7,94.8-11.7-28.6H565.7L554,646.5H525.4L580.1,518H606l54.7,128.5Z" transform="translate(-281 -207.4)" style="fill:#fff"/><path d="M731.9,648.7c-37.5,0-65.4-29-65.4-65.6v-.4c0-36.3,27.3-66,66.5-66,24.1,0,38.5,8,50.3,19.7L765.4,557c-9.8-8.9-19.9-14.4-32.6-14.4-21.5,0-37,17.9-37,39.7v.4c0,21.9,15.1,40.1,37,40.1,14.6,0,23.5-5.8,33.5-14.9l17.9,18c-13.1,14-27.7,22.8-52.3,22.8" transform="translate(-281 -207.4)" style="fill:#fff"/><polygon points="618.9 439.1 579.4 384.8 564.6 400.1 564.6 439.1 536.6 439.1 536.6 311.5 564.6 311.5 564.6 367.3 616.4 311.5 650.3 311.5 598.3 365.7 652.6 439.1 618.9 439.1" style="fill:#fff"/><polygon points="708.6 337 708.6 364.2 769.5 364.2 769.5 389.7 708.6 389.7 708.6 439.1 680.5 439.1 680.5 311.5 777.7 311.5 777.7 337 708.6 337" style="fill:#fff"/><rect x="805" y="311.5" width="28.1" height="127.6" style="fill:#fff"/><polygon points="954.5 439.1 892.7 358 892.7 439.1 865 439.1 865 311.5 890.9 311.5 950.6 390.1 950.6 311.5 978.3 311.5 978.3 439.1 954.5 439.1" style="fill:#fff"/><path d="M1353.4,648.7c-37.5,0-65.4-29-65.4-65.6v-.4c0-36.3,27.3-66,66.5-66,24.1,0,38.5,8,50.3,19.7L1386.9,557c-9.8-8.9-19.9-14.4-32.6-14.4-21.5,0-37,17.9-37,39.7v.4c0,21.9,15.1,40.1,37,40.1,14.6,0,23.5-5.8,33.5-14.9l17.9,18c-13.1,14-27.7,22.8-52.3,22.8" transform="translate(-281 -207.4)" style="fill:#fff"/><polygon points="1232 439.1 1232 387.9 1180.3 387.9 1180.3 439.1 1152.2 439.1 1152.2 311.5 1180.3 311.5 1180.3 362 1232 362 1232 311.5 1260.1 311.5 1260.1 439.1 1232 439.1" style="fill:#fff"/><polygon points="202.2 615.4 140.4 534.3 140.4 615.4 112.7 615.4 112.7 487.8 138.6 487.8 198.3 566.4 198.3 487.8 226 487.8 226 615.4 202.2 615.4" style="fill:#fff"/><polygon points="256.7 615.4 256.7 487.8 352.9 487.8 352.9 512.8 284.5 512.8 284.5 538.7 344.7 538.7 344.7 563.7 284.5 563.7 284.5 590.4 353.8 590.4 353.8 615.4 256.7 615.4" style="fill:#fff"/><polygon points="518.9 616.3 494.5 616.3 465.7 532.9 436.9 616.3 412.5 616.3 368.9 487.8 399 487.8 425.4 574.2 454 487.5 478.1 487.5 506.7 574.2 533.1 487.8 562.5 487.8 518.9 616.3" style="fill:#fff"/><path d="M986,738.8c0-12-8.4-18.2-22.1-18.2H936v36.6h28.4c13.7,0,21.5-7.3,21.5-18v-.4Zm-.6,84L958.1,782H936v40.8H908V695.2h58.3c30.1,0,48.1,15.9,48.1,42.1v.4c0,20.6-11.1,33.5-27.3,39.5l31.2,45.6Z" transform="translate(-281 -207.4)" style="fill:#fff"/><path d="M1140.4,759c0-21.9-16-40.1-38.6-40.1s-38.3,17.9-38.3,39.7v.4c0,21.9,16,40.1,38.6,40.1s38.3-17.9,38.3-39.7Zm-38.7,66c-39.4,0-67.6-29.3-67.6-65.6V759c0-36.3,28.6-66,68-66s67.6,29.3,67.6,65.6v.4c0,36.3-28.6,66-68,66" transform="translate(-281 -207.4)" style="fill:#fff"/><path d="M1242.8,728l-16.9,41.4h33.9Zm38.6,94.8-11.7-28.6h-53.9l-11.7,28.6h-28.6l54.7-128.5h25.9l54.7,128.5Z" transform="translate(-281 -207.4)" style="fill:#fff"/><path d="M1418.7,759c0-22.6-15.5-38.5-38.5-38.5h-21.7v76.9h21.7c23,0,38.5-15.5,38.5-38.1Zm-38.5,63.8h-49.8V695.2h49.8c40.1,0,67.8,27.5,67.8,63.4v.4c0,35.9-27.7,63.8-67.8,63.8" transform="translate(-281 -207.4)" style="fill:#fff"/></svg>