<?xml version="1.0" encoding="utf-8"?>
<!-- Generator: Adobe Illustrator 22.0.1, SVG Export Plug-In . SVG Version: 6.00 Build 0)  -->
<svg version="1.1" id="Layer_1" xmlns="http://www.w3.org/2000/svg" xmlns:xlink="http://www.w3.org/1999/xlink" x="0px" y="0px"
	 viewBox="0 0 1920 1080" style="enable-background:new 0 0 1920 1080;" xml:space="preserve">
<style type="text/css">
	.st0{fill:#FFFFFF;}
</style>
<g>
	<g>
		<path class="st0" d="M1021.4,217.7c-1.2-3.1-4.8-4.7-8-3.5c-3.2,1.1-4.9,4.6-3.7,7.7c1.2,3.1,4.8,4.7,8,3.5
			C1021,224.3,1022.6,220.8,1021.4,217.7 M1031.7,233.1c-16.5,14.6,8.2,53.6-6.3,94.7c-11.7,33.1-42.6,52.5-97.8,52.5l-62.5,54.9
			h-39.2l62.6-54.9h-58.2l127.7-112l9.1-27.8c0.1-0.5,0.2-1,0.4-1.5l0-0.1v0c3.4-12.4,13.8-23.8,27.2-28.4
			c8.4-2.9,17.4-3.9,24.8-2.5l33.8,6.2C1053.2,214.2,1048.3,218.4,1031.7,233.1 M872.8,385.7h-39.2l-62.5,54.9h39.2L872.8,385.7z"/>
		<path class="st0" d="M361.6,607.7c0-8.6-6.4-13.9-20.8-13.9h-32.4v28.1h33.3c12.4,0,19.9-4.4,19.9-13.9V607.7z M354.4,556.6
			c0-8.4-6.6-13.1-18.4-13.1h-27.7v27h25.9c12.4,0,20.2-4,20.2-13.5V556.6z M341.7,646.5H281V518.9h59.2c26.1,0,42.1,12.9,42.1,33
			v0.4c0,14.4-7.7,22.4-16.8,27.5c14.8,5.7,23.9,14.2,23.9,31.3v0.4C389.4,634.8,370.5,646.5,341.7,646.5"/>
	</g>
	<polygon class="st0" points="412.6,646.5 412.6,518.9 440.6,518.9 440.6,621 504.3,621 504.3,646.5 	"/>
	<path class="st0" d="M592.6,551.7l-16.9,41.4h33.9L592.6,551.7z M631.3,646.5l-11.7-28.6h-53.9L554,646.5h-28.6L580.1,518H606
		l54.7,128.5H631.3z"/>
	<g>
		<path class="st0" d="M731.9,648.7c-37.5,0-65.4-29-65.4-65.6v-0.4c0-36.3,27.3-66,66.5-66c24.1,0,38.5,8,50.3,19.7L765.4,557
			c-9.8-8.9-19.9-14.4-32.6-14.4c-21.5,0-37,17.9-37,39.7v0.4c0,21.9,15.1,40.1,37,40.1c14.6,0,23.5-5.8,33.5-14.9l17.9,18
			C771.1,639.9,756.5,648.7,731.9,648.7"/>
	</g>
	<polygon class="st0" points="899.9,646.5 860.4,592.2 845.6,607.5 845.6,646.5 817.6,646.5 817.6,518.9 845.6,518.9 845.6,574.7 
		897.4,518.9 931.3,518.9 879.3,573.1 933.6,646.5 	"/>
	<polygon class="st0" points="989.6,544.4 989.6,571.6 1050.5,571.6 1050.5,597.1 989.6,597.1 989.6,646.5 961.5,646.5 961.5,518.9 
		1058.7,518.9 1058.7,544.4 	"/>
	<rect x="1086" y="518.9" class="st0" width="28.1" height="127.6"/>
	<polygon class="st0" points="1235.5,646.5 1173.7,565.4 1173.7,646.5 1146,646.5 1146,518.9 1171.9,518.9 1231.6,597.5 
		1231.6,518.9 1259.3,518.9 1259.3,646.5 	"/>
	<g>
		<path class="st0" d="M1353.4,648.7c-37.5,0-65.4-29-65.4-65.6v-0.4c0-36.3,27.3-66,66.5-66c24.1,0,38.5,8,50.3,19.7l-17.9,20.6
			c-9.8-8.9-19.9-14.4-32.6-14.4c-21.5,0-37,17.9-37,39.7v0.4c0,21.9,15.1,40.1,37,40.1c14.6,0,23.5-5.8,33.5-14.9l17.9,18
			C1392.6,639.9,1378,648.7,1353.4,648.7"/>
	</g>
	<polygon class="st0" points="1513,646.5 1513,595.3 1461.3,595.3 1461.3,646.5 1433.2,646.5 1433.2,518.9 1461.3,518.9 
		1461.3,569.4 1513,569.4 1513,518.9 1541.1,518.9 1541.1,646.5 	"/>
	<polygon class="st0" points="483.2,822.8 421.4,741.7 421.4,822.8 393.7,822.8 393.7,695.2 419.6,695.2 479.3,773.8 479.3,695.2 
		507,695.2 507,822.8 	"/>
	<polygon class="st0" points="537.7,822.8 537.7,695.2 633.9,695.2 633.9,720.2 565.5,720.2 565.5,746.1 625.7,746.1 625.7,771.1 
		565.5,771.1 565.5,797.8 634.8,797.8 634.8,822.8 	"/>
	<polygon class="st0" points="799.9,823.7 775.5,823.7 746.7,740.3 717.9,823.7 693.5,823.7 649.9,695.2 680,695.2 706.4,781.6 
		735,694.9 759.1,694.9 787.7,781.6 814.1,695.2 843.5,695.2 	"/>
	<g>
		<path class="st0" d="M986,738.8c0-12-8.4-18.2-22.1-18.2h-27.9v36.6h28.4c13.7,0,21.5-7.3,21.5-18V738.8z M985.4,822.8L958.1,782
			h-22.1v40.8H908V695.2h58.3c30.1,0,48.1,15.9,48.1,42.1v0.4c0,20.6-11.1,33.5-27.3,39.5l31.2,45.6H985.4z"/>
		<path class="st0" d="M1140.4,759c0-21.9-16-40.1-38.6-40.1s-38.3,17.9-38.3,39.7v0.4c0,21.9,16,40.1,38.6,40.1
			c22.6,0,38.3-17.9,38.3-39.7V759z M1101.7,825c-39.4,0-67.6-29.3-67.6-65.6V759c0-36.3,28.6-66,68-66c39.4,0,67.6,29.3,67.6,65.6
			v0.4C1169.7,795.3,1141.1,825,1101.7,825"/>
	</g>
	<path class="st0" d="M1242.8,728l-16.9,41.4h33.9L1242.8,728z M1281.4,822.8l-11.7-28.6h-53.9l-11.7,28.6h-28.6l54.7-128.5h25.9
		l54.7,128.5H1281.4z"/>
	<path class="st0" d="M1418.7,759c0-22.6-15.5-38.5-38.5-38.5h-21.7v76.9h21.7c23,0,38.5-15.5,38.5-38.1V759z M1380.2,822.8h-49.8
		V695.2h49.8c40.1,0,67.8,27.5,67.8,63.4v0.4C1448,794.9,1420.3,822.8,1380.2,822.8"/>
</g>
</svg>
