<svg xmlns="http://www.w3.org/2000/svg" viewBox="0 0 580.26 498.77"><defs><style>.cls-1{fill:#1d1d1b;}.cls-2{fill:#fff;}.cls-3{fill:#009fe3;}.cls-4{fill:#fdfdfd;}</style></defs><title>RapidsLogoFinal RGB</title><g id="Layer_6" data-name="Layer 6"><path class="cls-1" d="M406.38,536.55a79.84,79.84,0,0,1-13.78-1.18l-.13,0a170.09,170.09,0,0,1-40.83-14.19,10.38,10.38,0,0,1-10.14,6.57c-9,0-20.61-8.93-22.85-10.72a131.2,131.2,0,0,1-10.09-9.25l-30.88,8.67a26.88,26.88,0,0,1-34-23.59l-4.43,1.24a26.87,26.87,0,0,1-7.27,1q-.73,0-1.47,0a26.7,26.7,0,0,1-8,3.73l-34.63,9.73a26.87,26.87,0,0,1-34.14-25.85l-.12-131.6a26.88,26.88,0,0,1-15-33.61l10.15-29.27a26.88,26.88,0,0,1,18.12-17.07l67.4-18.94,1-.27A131.71,131.71,0,0,1,242,234.06c-4.88,2.33-9.9,3.91-14.68,3.91a18,18,0,0,1-13-5.24,20.56,20.56,0,0,1-5.89-15.36c.39-19.29,22.67-49,68.11-91l2.65-2.45.12-.11c49.58-44.15,109.78-70,169.55-72.74l3.51-.31.48,0,1.76.11c2.84-.19,5.7-.29,8.52-.29a122.6,122.6,0,0,1,120.8,101.78l1.9-.48c1.66-.46,29.38-8.23,55.45-15.91a49,49,0,0,1,13.69-2.2c17.1,0,22.79,12.38,23.41,18.93l0,.3v78.27h0l0,10.58a26.93,26.93,0,0,1-6.54,17.48l.7.7c5.09,5.21,11.14,14.54,11.13,29.47l0,51.18c.15,13.15-7.46,25.15-19.81,32.41l1.21,0c12.07,0,22.85,7.16,30.36,20.16,11,19.12,12.2,45.95,2.7,62.4-6.33,11-17,17-30,17h0l-1.49,0c-3.74,11.1-10.66,23.14-26,23.14a41.48,41.48,0,0,1-12.91-2.36c-3,7.78-9.24,18-23,18a32.57,32.57,0,0,1-7.5-.94l-.2,0-.2-.06c-8.42-2.59-15-6.67-19.4-11.9-6.73,11-15.15,24.44-33.15,24.44-1.24,0-2.53-.07-3.82-.19h-.13c-8.2-1-13.83-4.28-16.72-9.81A19,19,0,0,1,521.65,502c-25,13.16-51.77,20-78.2,20-4.38,0-8.79-.19-13.18-.56a10.94,10.94,0,0,1-.69,5.71C427.08,533.39,419.27,536.55,406.38,536.55Z" transform="translate(-130.67 -44.18)"/><path class="cls-2" d="M463.09,57A116.15,116.15,0,0,1,578.53,160.32l8.9-2.26s28.5-8,55.61-16a42.38,42.38,0,0,1,11.88-1.94c15.8,0,17,13.13,17,13.13v72.58h0l0,15.95a20.48,20.48,0,0,1-10.33,17.72,30.57,30.57,0,0,1,6.31,5c4.25,4.35,9.32,12.22,9.3,25l0,51.19c.16,14.13-10.69,26.69-27.1,31.3l-.3.09a63.75,63.75,0,0,1,4.28,9.77A27.85,27.85,0,0,1,665,379.47c37.1,0,49.49,86.76,3,86.76a42.24,42.24,0,0,1-6.11-.46c-4.41,16.18-10.85,23.58-21.42,23.58-4.76,0-10.36-1.5-17-4.37-3,11.54-8.15,20-18.88,20a26,26,0,0,1-6-.77c-9.25-2.85-18.49-8.54-20.63-18.49-9.44,12.82-15,30.75-33.8,30.75q-1.53,0-3.19-.16c-17.78-2.13-14.23-16.36-7.82-28.45-27,17.47-57.67,27.79-89.74,27.79A149.86,149.86,0,0,1,418,513.43c13.91,13.4.95,16.72-11.58,16.72a73.2,73.2,0,0,1-12.6-1.07,166.14,166.14,0,0,1-48.37-18.49c2,8-.15,10.74-3.91,10.74-5.56,0-14.61-5.93-18.85-9.32a128.21,128.21,0,0,1-12.23-11.56,20.47,20.47,0,0,1-2.1.73L276,510.27a20.47,20.47,0,0,1-25.78-22.74l.5-3.31-13.19,3.71a20.42,20.42,0,0,1-8.87.49,20.43,20.43,0,0,1-7.83,4.2l-34.63,9.73a20.47,20.47,0,0,1-26-19.69L160,346.34a20.47,20.47,0,0,1-15.4-26.79l10.15-29.27a20.47,20.47,0,0,1,13.8-13L236,258.35c1.47-.41,2.93-.76,4.37-1.05a118.8,118.8,0,0,1,22.56-44.74c-7.31,5.06-23.51,19-35.6,19a11.54,11.54,0,0,1-8.5-3.36c-22-22,53.35-88.91,64.73-99.58C329,88.09,386.66,60.35,449.25,57.5l3.62-.32,1.74.11q4.22-.3,8.49-.31M510.4,421.16A76.44,76.44,0,0,0,546,411.72c7-4,12.6-9.52,17.75-15.62-3.29,1.08-6.51,2-9.46,2.82L510.4,411.25v9.92m-47.31-377c-2.83,0-5.7.09-8.54.28l-.81-.05-1-.07-1,.08-3.41.3a260.57,260.57,0,0,0-93.58,22.5A307.08,307.08,0,0,0,275,119.07l-.12.11-.12.11-2.61,2.42c-7.9,7.29-24.35,22.46-39.38,39.6-20.72,23.63-30.5,41.4-30.79,55.93a26.81,26.81,0,0,0,7.76,20,24.27,24.27,0,0,0,17.55,7.11,29.83,29.83,0,0,0,3.7-.24q-.44,1.27-.86,2.55L165.1,265a33.29,33.29,0,0,0-22.44,21.13l-10.15,29.27A33.31,33.31,0,0,0,147.22,355l.12,127.65a33.27,33.27,0,0,0,42.27,32l34.63-9.73a33.12,33.12,0,0,0,8-3.45,33.26,33.26,0,0,0,6.45-.7,33.29,33.29,0,0,0,40.68,21.81l27.29-7.67c2.59,2.5,5.21,4.83,7.81,7l.06.05.06.05c3.56,2.84,16,12.13,26.85,12.13a17.12,17.12,0,0,0,12.3-4.85,175.59,175.59,0,0,0,37.36,12.33l.13,0,.13,0a86.54,86.54,0,0,0,15,1.29c15.76,0,25.56-4.5,29.14-13.38.17-.41.32-.85.47-1.32q3.73.17,7.46.17c24.52,0,49.27-5.69,72.76-16.61a23.51,23.51,0,0,0,1.64,4c2.7,5.16,8.65,11.64,21.63,13.19l.13,0h.13c1.51.15,3,.23,4.46.23,17.67,0,27.48-10.62,34.4-20.88a52.2,52.2,0,0,0,16.26,8.05l.4.12.4.1a38.94,38.94,0,0,0,9,1.11,28.1,28.1,0,0,0,22.11-10.2A36.5,36.5,0,0,0,631.1,501a42.24,42.24,0,0,0,9.4,1.13,29.53,29.53,0,0,0,22.54-10,44.58,44.58,0,0,0,8-13.25,39.33,39.33,0,0,0,30.46-16.75c6.19-8.78,9.46-20.36,9.46-33.46,0-14.24-4-28.86-10.86-40.12-5.72-9.33-13.08-15.9-21.43-19.29A41.67,41.67,0,0,0,690,340.62l0-51.13c0-14.31-4.94-24.22-10-30.62a33.28,33.28,0,0,0,4.74-17l0-5.13h0l0-10.86V152.7l-.06-.6a27.77,27.77,0,0,0-4.83-12.67c-5.41-7.77-14.27-12.06-25-12.06a55.38,55.38,0,0,0-15.49,2.47c-20.16,5.93-41.31,11.92-50.59,14.54A129.07,129.07,0,0,0,463.09,44.18Z" transform="translate(-130.67 -44.18)"/></g><g id="Surf_wave" data-name="Surf wave"><path class="cls-1" d="M654.1,381.84c-12.8-37-44.1-35.56-69.71-10.67-13.51,13.51-22,31.3-38.41,40.54s-39.83,12.8-57.61,5.69c-27-10-69.71-53.35-55.48-85.35,24.18-52.63,97.45-56.9,123.05-106.69,14.94-27.74,12.09-69-.71-96.73-14.11-28.86-46.14-61.75-79.94-70-7.45-.67-15-.9-22.43-1.41l-3.62.32C386.66,60.35,329,88.09,283.53,128.63c-11.38,10.67-86.78,77.53-64.73,99.58,11.38,11.38,34.85-9.25,44.1-15.65C209.55,278,243.69,384,276.41,449.42c11.38,22.76,26.32,46.23,46.23,62.59,7.11,5.69,27.74,18.49,22.76-1.42a166.14,166.14,0,0,0,48.37,18.49c11.38,2.13,43.39,2.85,24.18-15.65,41.25,7.11,81.09-3.56,115.23-25.61-6.4,12.09-10,26.32,7.82,28.45,21.34,2.13,27-17.07,37-30.58,2.13,10,11.38,15.65,20.63,18.49,14.94,3.56,21.34-5.69,24.89-19.2,21.34,9.25,32,4.27,38.41-19.2C720.25,474.31,701,361.93,654.1,381.84Z" transform="translate(-130.67 -44.18)"/><path class="cls-2" d="M483.75,113.34A342.26,342.26,0,0,0,443.21,82c-12-8.64-14.61-8.59-26.51-6.22l.9-.18c-59,7.11-115.94,49.79-154.35,93.18-5,5.69-19.2,20.63-12.09,28.45,10,10.67,34.14-7.82,42-11.38-10.67,19.92-23.47,37-31.3,59.75A144.87,144.87,0,0,0,259,317.47c6.41,35,17.61,70.65,34.05,103l.24-.18c28.78-19,61.45-30,93.48-42.26l3.6-1.71c-1.66-24.14,2.88-49.46,13-70.21,21.34-42,57.61-58.32,91.75-86.78C534.25,186.6,515,143.21,483.75,113.34Z" transform="translate(-130.67 -44.18)"/><path class="cls-2" d="M599,458.66c-4.27,4.27-5.69,14.23-.71,18.49,12.09,10,23.47-15.65,27-23.47-.71,7.82,2.85,13.51,10.67,14.23,13.51,1.42,14.23-12.8,14.23-22.76,48.37-2.13,19.2-71.13-10.67-39.83-.71-50.5-49.08,1.42-63.3,15.65-22.76,22.76-44.81,45.52-69.71,65.44,19.92-10,44.1-16.36,61.88-30.58-7.11,7.82-22,32.72-.71,21.34,9.25-5.69,12.09-17.78,21.34-22,5.69-3.56,16.36-1.42,7.82,6.4" transform="translate(-130.67 -44.18)"/><path class="cls-3" d="M397.86,92.53c-20.27,9.07-41.61,18.14-60.28,30.41-17.6,11.74-42.68,25.61-51.75,45.34,9.07,3.73,25.07-11.74,32-16,9.07-5.33,17.6-10.14,26.67-14.94-30.94,27.74-49.61,64-63.48,103-7.47,21.34-17.6,45.34,1.07,62.95-.53-19.74,4.8-38.94,11.2-57.08,4.8-12.8,16-47.48,31.47-51.75,1.6,6.4-.53,11.74-2.67,18.14-4.27,13.34-8.54,26.67-13.34,40C305.58,260,298.11,283,302.91,291c7.47,12.27,12.27-8.54,13.87-13.34,4.8-14.4,10.67-28.81,18.14-41.61,6.93-12.8,17.07-25.07,29.34-32.54,5.33,10.14-10.67,33.61-14.94,43.21a121.28,121.28,0,0,0-10.67,38.41c-2.13,16-2.13,25.61,16,27.74,6.4.53,12.8,1.6,18.14-2.67,7.47-5.87,15.47-20.8,21.34-29.34,10.67-14.4,25.07-25.61,34.67-40,14.94-22.41,21.87-42.14,21.34-68.82-.53-19.2-6.4-43.74-19.74-58.15-6.4-6.4-21.87-22.41-30.94-22.94" transform="translate(-130.67 -44.18)"/><path class="cls-3" d="M278.9,172.55c-5.87,1.6-10.67,6.4-10.67,12.8,6.93,2.67,16.54-10.14,10.14-12.8" transform="translate(-130.67 -44.18)"/><path class="cls-3" d="M319.45,454.75c12.8,19.2,34.67,42.68,57.08,50.15,5.33,1.6,16,4.8,16-3.73,0-5.33-10.14-13.34-13.34-17.07h0c5.33,1.07,10.14,3.73,14.94,5.33,10.67,3.73,21.34,4.27,32.54,3.73,32.54-1.07,65.62-17.6,90.15-38.41-27.21-.53-50.68,12.27-77.35-1.6-29.34-15.47-37.34-52.81-68.82-66.68-30.41-13.34-56.55,10.14-53.35,41.61,1.07,5.87,5.87,12.8,6.4,18.67,0,4.8-4.8,6.4-3.73,10.14" transform="translate(-130.67 -44.18)"/><path class="cls-2" d="M375.82,493.08c-7.22-1.77-16.17-8.69-22.07-12.77-6.56-5.08-17.31-13.38-21-21-3.59-7.07.37-9.73,7.37-13.85,11.23,16.31,24,31.89,35.21,48.2" transform="translate(-130.67 -44.18)"/><path class="cls-2" d="M380.26,463.82c17.6,22.94,56.55,22.94,80.55,14.4-26.14,1.6-43.74-3.2-62.95-22.41h0c-6.93-.53-16,1.07-18.67,8" transform="translate(-130.67 -44.18)"/><path class="cls-2" d="M420.27,455.28c11.2,9.07,29.87,12.8,44.28,13.34h0c-15.47-4.27-29.87-9.6-42.68-19.74-.53,2.13-1.6,4.27-1.6,6.4" transform="translate(-130.67 -44.18)"/><path class="cls-3" d="M568,447.28c7-1.92,11.5-3.54,18-8.18l4.56-3.22c2-1.31,4.23-2.95,6.66-4.47,4.79-3.21,10.14-6.19,13.78-8.16l-6.09-4.06a41.77,41.77,0,0,1-1.57,7.33l-.92,3.33c-.27,1.07-.49,2.08-.68,3l-.39,2.48-.11,1.82,0,1v.09h0l4.36,4.16h0l-4.36-4.16,4.36,4.16c1-.11,1.78-.22,2.36-.31a7.36,7.36,0,0,0,1.22-.31l.58-.18.86-.27c.56-.18,1.29-.57,2.25-1a31.21,31.21,0,0,0,6.45-4.79c2.29-2.12,4.58-4.69,7-7a28.79,28.79,0,0,1,3.77-3.11,12.34,12.34,0,0,1,3.84-1.71l-4.85-3c-.06-.31,0,.25-.08.84s-.23,1.36-.4,2.13c-.35,1.54-.78,3.19-1.1,4.87a18.6,18.6,0,0,0-.38,5.39,8.51,8.51,0,0,0,.9,3.1,7.21,7.21,0,0,0,2.13,2.46l-.4-.33a9.63,9.63,0,0,0,4.54,2.43,8,8,0,0,0,3,0,9,9,0,0,0,4.43-2.3,12.5,12.5,0,0,0,2.23-2.79,15.64,15.64,0,0,0,1.91-5.26,17.54,17.54,0,0,0,.14-5.08,10.89,10.89,0,0,0-1.71-5,11.66,11.66,0,0,1-1.76,4.38c-.76,1.25-1.54,2.38-2.35,3.46a31.41,31.41,0,0,1-2.51,3,9.07,9.07,0,0,1-1.25,1.09,2.39,2.39,0,0,1-.47.26c-.05,0-.11.05-.12,0h0l0,.11,0,.21v0a.68.68,0,0,1,0-.11,1.6,1.6,0,0,1,0-.19s0,0,0,0,0,0-.07,0-.1-.08-.17-.11-.18-.17-.3-.24l-.59-.39-.63,1.19c-.05.1-.09,0,.4-.24a2.86,2.86,0,0,1,.47-.2l.34-.13.07,0h0s0-.09,0-.2a11.38,11.38,0,0,1,.29-2.9c.25-1.33.66-2.88,1.05-4.63.2-.88.39-1.81.54-2.89a10.57,10.57,0,0,0-.17-4.22l-1-3.85-3.9.89a20.53,20.53,0,0,0-6.82,2.95,36.78,36.78,0,0,0-4.91,4c-2.81,2.71-5,5.19-7,7a23,23,0,0,1-4.64,3.52c-.56.24-1,.5-1.27.59l-.45.13-.3.09a2.44,2.44,0,0,1-.62.16c-.29,0-.66.07-1.15.16l4.36,4.16-4.36-4.16h0l4.36,4.16h0v-.06l0-.66.07-1.23.29-1.84c.16-.73.34-1.54.57-2.47l.88-3.17a48.8,48.8,0,0,0,1.87-8.89l.71-7.71-6.81,3.65c-3.88,2.08-9.56,5.24-14.51,8.56-2.53,1.59-4.84,3.27-6.87,4.63l-4.64,3.33C574.61,437.19,571.84,441.11,568,447.28Z" transform="translate(-130.67 -44.18)"/><ellipse class="cls-2" cx="333.85" cy="182.15" rx="5.87" ry="4.8" transform="translate(-124.17 331.56) rotate(-59.22)"/></g><g id="top_wave" data-name="top wave"><path class="cls-1" d="M672,225.89V153.3s-1.81-19.17-28.92-11.19-55.61,16-55.61,16l-68.21,17.31,13.07,73.88" transform="translate(-130.67 -44.18)"/></g><g id="Ball"><circle class="cls-4" cx="332.42" cy="128.94" r="100.69"/><path class="cls-1" d="M463.09,72.44A100.69,100.69,0,1,1,362.41,173.12,100.69,100.69,0,0,1,463.09,72.44m0-15.46a116.14,116.14,0,1,0,82.13,34,115.38,115.38,0,0,0-82.13-34Z" transform="translate(-130.67 -44.18)"/><path class="cls-3" d="M479.94,250.39a91.21,91.21,0,0,1-64-26.14A13.61,13.61,0,0,1,400,203.49a91.56,91.56,0,0,1,5.05-97.26,87.45,87.45,0,1,0,107,138.36A91.3,91.3,0,0,1,479.94,250.39Z" transform="translate(-130.67 -44.18)"/><circle class="cls-3" cx="309.61" cy="102.28" r="5.9"/><circle class="cls-3" cx="298.83" cy="131.77" r="9.36"/><circle class="cls-3" cx="329.33" cy="150.07" r="11.8"/><path class="cls-1" d="M551.66,225h-1c0-31.7-13-68.13-34.87-97.46-23.83-32-54.26-51.18-85.69-54l.09-1c31.72,2.84,62.4,22.16,86.4,54.4C538.55,156.44,551.66,193.09,551.66,225Z" transform="translate(-130.67 -44.18)"/><path class="cls-1" d="M546,220l.53,8.39a4.52,4.52,0,0,1-.62,3,2.58,2.58,0,0,1-2,1.13,2.63,2.63,0,0,1-2.18-.83,4.51,4.51,0,0,1-1-2.88l-.53-8.39a4.51,4.51,0,0,1,.62-3,2.79,2.79,0,0,1,4.21-.28A4.5,4.5,0,0,1,546,220Z" transform="translate(-130.67 -44.18)"/><path class="cls-1" d="M542.88,199.47l1.59,8.26a4.52,4.52,0,0,1-.25,3,2.58,2.58,0,0,1-1.87,1.38,2.63,2.63,0,0,1-2.26-.55,4.51,4.51,0,0,1-1.35-2.74l-1.59-8.26a4.51,4.51,0,0,1,.24-3,2.79,2.79,0,0,1,4.14-.81A4.5,4.5,0,0,1,542.88,199.47Z" transform="translate(-130.67 -44.18)"/><path class="cls-1" d="M537.32,179.58l2.54,8a4.52,4.52,0,0,1,.11,3,2.58,2.58,0,0,1-1.7,1.58,2.63,2.63,0,0,1-2.31-.29,4.51,4.51,0,0,1-1.66-2.56l-2.54-8a4.51,4.51,0,0,1-.11-3,2.79,2.79,0,0,1,4-1.29A4.5,4.5,0,0,1,537.32,179.58Z" transform="translate(-130.67 -44.18)"/><path class="cls-1" d="M529.5,160.48l3.45,7.67a4.52,4.52,0,0,1,.46,3,2.58,2.58,0,0,1-1.5,1.77,2.63,2.63,0,0,1-2.33,0,4.52,4.52,0,0,1-1.95-2.35l-3.45-7.67a4.51,4.51,0,0,1-.47-3,2.78,2.78,0,0,1,3.84-1.74A4.5,4.5,0,0,1,529.5,160.48Z" transform="translate(-130.67 -44.18)"/><path class="cls-1" d="M519.47,142.4l4.34,7.21a4.52,4.52,0,0,1,.81,2.92,2.58,2.58,0,0,1-1.28,1.94,2.63,2.63,0,0,1-2.32.26,4.51,4.51,0,0,1-2.21-2.1l-4.34-7.21a4.51,4.51,0,0,1-.82-2.94,2.79,2.79,0,0,1,3.61-2.19A4.5,4.5,0,0,1,519.47,142.4Z" transform="translate(-130.67 -44.18)"/><path class="cls-1" d="M507.24,125.64l5.21,6.6a4.53,4.53,0,0,1,1.17,2.79,2.58,2.58,0,0,1-1,2.08,2.63,2.63,0,0,1-2.27.55,4.51,4.51,0,0,1-2.46-1.8l-5.21-6.6a4.51,4.51,0,0,1-1.19-2.81,2.79,2.79,0,0,1,3.3-2.62A4.5,4.5,0,0,1,507.24,125.64Z" transform="translate(-130.67 -44.18)"/><path class="cls-1" d="M492.8,110.56l6.06,5.83a4.52,4.52,0,0,1,1.54,2.6,2.58,2.58,0,0,1-.73,2.2,2.63,2.63,0,0,1-2.17.86,4.51,4.51,0,0,1-2.68-1.45l-6.06-5.83a4.51,4.51,0,0,1-1.56-2.62,2.79,2.79,0,0,1,2.91-3A4.5,4.5,0,0,1,492.8,110.56Z" transform="translate(-130.67 -44.18)"/><path class="cls-1" d="M476.25,97.62l6.85,4.88a4.52,4.52,0,0,1,1.9,2.35,2.58,2.58,0,0,1-.4,2.29,2.63,2.63,0,0,1-2,1.16,4.51,4.51,0,0,1-2.87-1l-6.85-4.88a4.51,4.51,0,0,1-1.92-2.37,2.79,2.79,0,0,1,2.44-3.44A4.5,4.5,0,0,1,476.25,97.62Z" transform="translate(-130.67 -44.18)"/><path class="cls-1" d="M457.9,87.27l7.51,3.79a4.53,4.53,0,0,1,2.24,2,2.58,2.58,0,0,1-.05,2.32,2.63,2.63,0,0,1-1.82,1.45,4.51,4.51,0,0,1-3-.6l-7.51-3.79a4.52,4.52,0,0,1-2.26-2,2.79,2.79,0,0,1,1.89-3.77A4.5,4.5,0,0,1,457.9,87.27Z" transform="translate(-130.67 -44.18)"/><path class="cls-1" d="M438.17,79.83l8,2.61a4.53,4.53,0,0,1,2.52,1.68,2.58,2.58,0,0,1,.3,2.3,2.63,2.63,0,0,1-1.58,1.71,4.51,4.51,0,0,1-3-.14l-8-2.61a4.51,4.51,0,0,1-2.54-1.68,2.79,2.79,0,0,1,1.3-4A4.5,4.5,0,0,1,438.17,79.83Z" transform="translate(-130.67 -44.18)"/><path class="cls-1" d="M417.68,75.38,426,76.82a4.53,4.53,0,0,1,2.73,1.3,2.58,2.58,0,0,1,.63,2.24A2.63,2.63,0,0,1,428,82.28a4.51,4.51,0,0,1-3,.3l-8.29-1.44a4.51,4.51,0,0,1-2.76-1.3,2.79,2.79,0,0,1,.71-4.16A4.5,4.5,0,0,1,417.68,75.38Z" transform="translate(-130.67 -44.18)"/><path class="cls-1" d="M562.47,213.24l.58,8.39a4.52,4.52,0,0,1-.61,3,2.58,2.58,0,0,1-2,1.14,2.63,2.63,0,0,1-2.18-.82,4.51,4.51,0,0,1-1-2.88l-.58-8.39a4.51,4.51,0,0,1,.61-3,2.79,2.79,0,0,1,4.2-.31A4.5,4.5,0,0,1,562.47,213.24Z" transform="translate(-130.67 -44.18)"/><path class="cls-1" d="M559.13,192.75l1.65,8.25a4.53,4.53,0,0,1-.22,3,2.58,2.58,0,0,1-1.86,1.39,2.63,2.63,0,0,1-2.27-.54,4.51,4.51,0,0,1-1.37-2.72l-1.65-8.25a4.52,4.52,0,0,1,.22-3,2.79,2.79,0,0,1,4.13-.84A4.5,4.5,0,0,1,559.13,192.75Z" transform="translate(-130.67 -44.18)"/><path class="cls-1" d="M553.52,173l2.55,8a4.53,4.53,0,0,1,.11,3,2.58,2.58,0,0,1-1.7,1.59,2.63,2.63,0,0,1-2.31-.28,4.51,4.51,0,0,1-1.66-2.56l-2.55-8a4.51,4.51,0,0,1-.12-3,2.78,2.78,0,0,1,4-1.29A4.5,4.5,0,0,1,553.52,173Z" transform="translate(-130.67 -44.18)"/><path class="cls-1" d="M545.93,153.95l3.35,7.71a4.52,4.52,0,0,1,.42,3,2.58,2.58,0,0,1-1.52,1.75,2.63,2.63,0,0,1-2.33,0,4.51,4.51,0,0,1-1.92-2.37l-3.35-7.71a4.51,4.51,0,0,1-.43-3,2.79,2.79,0,0,1,3.86-1.69A4.5,4.5,0,0,1,545.93,153.95Z" transform="translate(-130.67 -44.18)"/><path class="cls-1" d="M536.46,135.83l4.12,7.34a4.53,4.53,0,0,1,.72,2.94A2.58,2.58,0,0,1,540,148a2.63,2.63,0,0,1-2.32.19,4.51,4.51,0,0,1-2.15-2.17l-4.12-7.34a4.51,4.51,0,0,1-.73-3,2.79,2.79,0,0,1,3.67-2.07A4.5,4.5,0,0,1,536.46,135.83Z" transform="translate(-130.67 -44.18)"/><path class="cls-1" d="M525.1,118.72l4.88,6.85a4.53,4.53,0,0,1,1,2.85,2.58,2.58,0,0,1-1.13,2,2.63,2.63,0,0,1-2.29.44,4.51,4.51,0,0,1-2.37-1.93l-4.88-6.85a4.51,4.51,0,0,1-1-2.87,2.79,2.79,0,0,1,3.43-2.45A4.5,4.5,0,0,1,525.1,118.72Z" transform="translate(-130.67 -44.18)"/><path class="cls-1" d="M511.79,102.93l5.65,6.23a4.53,4.53,0,0,1,1.36,2.7,2.58,2.58,0,0,1-.88,2.15,2.63,2.63,0,0,1-2.22.7,4.51,4.51,0,0,1-2.58-1.63l-5.65-6.23a4.51,4.51,0,0,1-1.37-2.72,2.78,2.78,0,0,1,3.11-2.84A4.5,4.5,0,0,1,511.79,102.93Z" transform="translate(-130.67 -44.18)"/><path class="cls-1" d="M496.4,88.85l6.44,5.41a4.53,4.53,0,0,1,1.71,2.5A2.58,2.58,0,0,1,504,99a2.63,2.63,0,0,1-2.11,1,4.51,4.51,0,0,1-2.77-1.27l-6.44-5.41a4.51,4.51,0,0,1-1.73-2.51,2.79,2.79,0,0,1,2.7-3.23A4.5,4.5,0,0,1,496.4,88.85Z" transform="translate(-130.67 -44.18)"/><path class="cls-1" d="M478.82,77.07,486,81.4a4.53,4.53,0,0,1,2.08,2.2,2.58,2.58,0,0,1-.22,2.31A2.63,2.63,0,0,1,486,87.23a4.51,4.51,0,0,1-2.94-.82l-7.21-4.33a4.51,4.51,0,0,1-2.1-2.21,2.78,2.78,0,0,1,2.16-3.62A4.5,4.5,0,0,1,478.82,77.07Z" transform="translate(-130.67 -44.18)"/><path class="cls-1" d="M459.19,68.41l7.88,2.95a4.53,4.53,0,0,1,2.45,1.78,2.58,2.58,0,0,1,.2,2.31,2.63,2.63,0,0,1-1.65,1.65,4.51,4.51,0,0,1-3-.27l-7.88-2.95a4.51,4.51,0,0,1-2.47-1.79,2.79,2.79,0,0,1,1.46-4A4.5,4.5,0,0,1,459.19,68.41Z" transform="translate(-130.67 -44.18)"/><path class="cls-1" d="M438,63.71,446.34,65a4.53,4.53,0,0,1,2.75,1.26,2.58,2.58,0,0,1,.66,2.23,2.63,2.63,0,0,1-1.29,1.94,4.51,4.51,0,0,1-3,.34l-8.31-1.31a4.51,4.51,0,0,1-2.78-1.26,2.78,2.78,0,0,1,.64-4.17A4.5,4.5,0,0,1,438,63.71Z" transform="translate(-130.67 -44.18)"/></g><g id="Rapids"><path class="cls-2" d="M658.07,176a8.82,8.82,0,0,0,2.29-5.48l.23-4.64a8.36,8.36,0,0,0-3.7-7.42l-.08,0a8.58,8.58,0,0,0-7-1.05l-20,5.63a9.06,9.06,0,0,0-4.37,2.76c-.18.21-.35.42-.51.64l-1.77-.64a11.19,11.19,0,0,0-2.08,0,11.51,11.51,0,0,0-2.38.4L601.25,171a8.72,8.72,0,0,1-5.71,1.61L590,174.19a9.32,9.32,0,0,0-2.83,1.33,8.76,8.76,0,0,0-3,.3l-5.6,1.57a9.05,9.05,0,0,0-4.37,2.77,9.34,9.34,0,0,0-.59.75,8.71,8.71,0,0,0-6-.43L562.07,182a9.29,9.29,0,0,0-3.1,1.53,8.74,8.74,0,0,0-3.3.27l-14.45,4.07a11.93,11.93,0,0,0-2.15.85,14.91,14.91,0,0,0-1.47.84L536,191l-2.1,2.41-.31-.2L530,192a11.19,11.19,0,0,0-2.08,0,11.56,11.56,0,0,0-2.38.4l-17.4,4.9a9,9,0,0,0-2.78,1.34,8.77,8.77,0,0,0-3,.29l-20,5.63a9,9,0,0,0-2,.87,8.79,8.79,0,0,0-2.19.31l-20,5.63a9.38,9.38,0,0,0-2.36,1,8.8,8.8,0,0,0-2.43.32l-14.43,4.06a11.92,11.92,0,0,0-2.17.86,15.12,15.12,0,0,0-1.47.84l-1.55,1.36a8.65,8.65,0,0,0-5.16-.14l-20,5.63a9,9,0,0,0-2.75,1.33,8.8,8.8,0,0,0-3,.29l-15.68,4.41a9.88,9.88,0,0,0-2.32,1q-.5.29-1,.59l-1.62,1.42-2.1,2.41-.31-.2-3.53-1.28a11.12,11.12,0,0,0-2.08,0,11.45,11.45,0,0,0-2.38.4l-17.42,4.9a9.06,9.06,0,0,0-4.39,2.78l-.22.28-1.35-.49a12.27,12.27,0,0,0-4.46.36L331.22,247a11.91,11.91,0,0,0-2.16.85,14.7,14.7,0,0,0-1.49.86l-.61.54a8.51,8.51,0,0,0-4.1.11L317,251a9.45,9.45,0,0,0-4.84,3.27,8.85,8.85,0,0,0-3.34-.64h-.49l-1.74.29-5.16,1.45-1.58.6a9.61,9.61,0,0,0-3.28,2.68,8.79,8.79,0,0,0-5.71-.31l-5.8,1.63a8.77,8.77,0,0,0-4.92,3.55,8.59,8.59,0,0,0-1.19,6.76l6.73,22.61c.69,2.47-2.6,9.48-.23,10.51,1.1.48,7.28-4.29,8.48-4.29a8.92,8.92,0,0,0,2.42-.34l4.87-1.37a9.43,9.43,0,0,0,5.22-3.79,8.76,8.76,0,0,0,6.23.56l4.88-1.37a9.38,9.38,0,0,0,3.79-2.12,9.25,9.25,0,0,0,2.59-4l.29-.87,2,1.35,2.48,1.09a9.6,9.6,0,0,0,2.32.28c.34,0,.7,0,1-.05a12.1,12.1,0,0,0,2.12-.39l20.27,3.09c.6-.17,1.52-4.14,2.17-4.43.87-.39,2.19-3.82,2.89-4.36l1-.94c.87.3-1,0,0,0s1.37-.74,2.19-1l.22-.48a9,9,0,0,0,5.13-3.7,8.85,8.85,0,0,0,1.64.57,9.22,9.22,0,0,0,4.65-.09l6.4-1.8a8.76,8.76,0,0,0,4.17-2.59l0,0a9.55,9.55,0,0,0,2.33.28,10.48,10.48,0,0,0,1-.05,12.18,12.18,0,0,0,2.11-.39L405.82,268a9,9,0,0,0,2.74-1.32c.2,0,.4,0,.61,0a9.11,9.11,0,0,0,2.46-.35l20-5.63a9,9,0,0,0,2.68-1.28l.53,0c.82,0,6.66,3.23,7.48,3l10.27-7.64a13.14,13.14,0,0,0,1.89-.7,11.35,11.35,0,0,0,2.36-1.43l1.05-1,2.63,2c.26.22.53-1.24.82-1,1.39.92,3-1.94,4.68-1.94a8.8,8.8,0,0,0,2.39-.33l5.6-1.58a8.92,8.92,0,0,0,4.51-3,9,9,0,0,0,.6-.84,8.36,8.36,0,0,0,3.84.93,9.11,9.11,0,0,0,2.47-.35l20-5.63a9,9,0,0,0,2.73-1.32c.2,0,.4,0,.6,0a9.13,9.13,0,0,0,2.47-.35l5.55-1.56a9,9,0,0,0,5.13-3.69,8.63,8.63,0,0,0,1.64.57,9.2,9.2,0,0,0,4.65-.09l6.41-1.8a8.89,8.89,0,0,0,2.38-1.07h.18a9.1,9.1,0,0,0,2.47-.35l15.28-4.3a13,13,0,0,0,1.87-.69,11.3,11.3,0,0,0,2.38-1.43l.87-.83a8.47,8.47,0,0,0,2.64.42,9.12,9.12,0,0,0,2.47-.35l5.56-1.56a9,9,0,0,0,5-3.54,8.65,8.65,0,0,0,6,.45l5.58-1.57a9,9,0,0,0,2.73-1.32c.2,0,.4,0,.61,0a9.14,9.14,0,0,0,2.47-.35l5.54-1.56a9.34,9.34,0,0,0,2.76-1.29l.5,0a9.1,9.1,0,0,0,2.46-.35l5.56-1.56a9,9,0,0,0,5.13-3.69,8.74,8.74,0,0,0,1.64.57,9.21,9.21,0,0,0,4.66-.09l6.4-1.8a8.93,8.93,0,0,0,2.44-1.11h.24a9.08,9.08,0,0,0,2.46-.35l20-5.63a9.11,9.11,0,0,0,4.41-2.79,8.81,8.81,0,0,0,2.18-5.38l.22-4.6a8.39,8.39,0,0,0-1.71-5.56l.16-3.33C658.08,176.56,658.08,176.28,658.07,176Z" transform="translate(-130.67 -44.18)"/><path class="cls-1" d="M227.64,368.85c3.92-1.1,6.58-3.13,6.49-8.93L234,313.87c-.08-4.53-3.05-6.43-8-5l-62,17.43L174.1,297l67.4-18.94c15.67-4.4,24.54,2.4,24.55,14.78l-.31,69c0,5.64-2.95,11.76-13.67,14.77,10.14-2.12,14.56,5.57,14.58,16.13l-.1,65.8-34.63,9.73.07-71.44c-.06-3.26-2-4.9-6.36-3.68L215.34,396l-.1,76.91-34.63,9.73L180.46,326l34.63-9.73.18,56.07Z" transform="translate(-130.67 -44.18)"/><path class="cls-1" d="M180.61,503.11a20.47,20.47,0,0,1-20.47-20.45L160,346.34a20.47,20.47,0,0,1-15.4-26.79l10.15-29.27a20.47,20.47,0,0,1,13.8-13L236,258.35a53.38,53.38,0,0,1,14.38-2.11c21.28,0,36.15,15,36.17,36.57,0,0,0,.07,0,.11l-.3,68.89a35.55,35.55,0,0,1-2.5,12.91,45.05,45.05,0,0,1,3.42,17.92l-.1,65.88a20.47,20.47,0,0,1-14.93,19.67l-34.63,9.73a20.43,20.43,0,0,1-8.87.49,20.43,20.43,0,0,1-7.83,4.2l-34.63,9.73A20.47,20.47,0,0,1,180.61,503.11Z" transform="translate(-130.67 -44.18)"/><path class="cls-1" d="M270.42,490.57l25.94-172.9,44.32-12.45L364.47,431l-30.92,8.69-3.23-23-20,5.62-7.56,59.15Zm48.55-151L312.16,402l15-4.23Z" transform="translate(-130.67 -44.18)"/><path class="cls-1" d="M270.42,511a20.47,20.47,0,0,1-20.24-23.51l25.94-172.9A20.47,20.47,0,0,1,290.82,298l44.32-12.45a20.47,20.47,0,0,1,25.65,15.9l23.8,125.77A20.47,20.47,0,0,1,370,450.69l-30.92,8.69a20.47,20.47,0,0,1-12.78-.56l-3.23,25.26a20.47,20.47,0,0,1-14.77,17.11L276,510.27A20.47,20.47,0,0,1,270.42,511Z" transform="translate(-130.67 -44.18)"/><path class="cls-1" d="M403.37,453.21,372.24,462l0-165.6,55-15.46c13.6-3.82,20.11,2.73,20.09,11.3l.12,62.09c.1,18.19-30.31,24.55-44.11,26.61Zm11-95.47c3.3-.93,4.5-2,4.48-6.36V310c-.06-3.26-2-4.89-6.57-3.62L403.23,309l0,51.92Z" transform="translate(-130.67 -44.18)"/><path class="cls-1" d="M372.24,482.43A20.47,20.47,0,0,1,351.77,462l0-165.6a20.47,20.47,0,0,1,14.93-19.71l55-15.46a47.73,47.73,0,0,1,12.86-1.88c9.35,0,17.84,3.35,23.91,9.44a32.77,32.77,0,0,1,9.32,23.45l.12,62c.05,9.37-3.65,26.89-29,38.11a103.57,103.57,0,0,1-15.07,5.22l0,55.63a20.47,20.47,0,0,1-14.93,19.71l-31.13,8.74A20.47,20.47,0,0,1,372.24,482.43Z" transform="translate(-130.67 -44.18)"/><path class="cls-1" d="M489.93,428.89l-31.95,9,0-165.6,31.95-9Z" transform="translate(-130.67 -44.18)"/><path class="cls-1" d="M458,458.34a20.47,20.47,0,0,1-20.47-20.46l0-165.6a20.47,20.47,0,0,1,14.93-19.71l31.95-9a20.47,20.47,0,0,1,26,19.7l0,165.6a20.47,20.47,0,0,1-14.93,19.71l-31.95,9A20.47,20.47,0,0,1,458,458.34Z" transform="translate(-130.67 -44.18)"/><path class="cls-1" d="M501,260.16l59.36-16.68c11.13-3.13,17.75,2.48,17.77,9.95l.08,99.64c.08,15.65-8.06,20.12-29.49,26.14l-47.62,13.38Zm31,12.6.05,89.08,9.89-2.78c4.95-1.39,5.9-3.12,5.9-6.21l-.09-78.68c0-3.81-1.12-5.51-5.86-4.18Z" transform="translate(-130.67 -44.18)"/><path class="cls-1" d="M501.13,413.06a20.47,20.47,0,0,1-20.47-20.45l-.1-132.43a20.47,20.47,0,0,1,14.93-19.72l59.36-16.68a42.55,42.55,0,0,1,11.48-1.65c18.36,0,32.24,13.43,32.29,31.25L598.7,353c.14,33.38-26.68,40.91-44.43,45.9L506.66,412.3A20.48,20.48,0,0,1,501.13,413.06Z" transform="translate(-130.67 -44.18)"/><path class="cls-1" d="M624.21,249.42c-2.27.64-4.23,2.1-4.29,5l.14,26.93,16.7-4.69c11.13-3.13,20-.14,20,12.8l0,51.37c.11,5.25-5.78,9.64-12.16,11.43l-50.91,14.3.06-25.16,26-7.3c5.77-1.62,6.17-3,6.31-6.33l-.27-22.34c0-1.11-.2-1.77-2.05-1.25l-16.49,4.63c-13,3.65-18.21-1.26-18.34-10.88l0-51.37c.4-9.41,7.22-13.14,14.64-15.23l48-13.49-.07,23.89Z" transform="translate(-130.67 -44.18)"/><path class="cls-1" d="M593.67,387.06a20.47,20.47,0,0,1-20.47-20.52l.06-25.16a20.47,20.47,0,0,1,8.07-16.24c-8-5.54-12.76-15-12.92-26.89,0-.09,0-.17,0-.26l0-51.37c0-.3,0-.59,0-.89.42-9.74,4.81-27.11,29.55-34.06l48-13.49A20.47,20.47,0,0,1,672,218l-.07,23.89a20.47,20.47,0,0,1-10.33,17.72,30.56,30.56,0,0,1,6.31,5c4.25,4.35,9.32,12.22,9.31,25l0,51.19c.16,14.13-10.69,26.69-27.1,31.3l-50.92,14.31A20.48,20.48,0,0,1,593.67,387.06Z" transform="translate(-130.67 -44.18)"/><path class="cls-3" d="M234.16,369.45c3.92-1.1,6.58-3.13,6.49-8.93l-.13-46.06c-.08-4.53-3.05-6.43-8-5l-62,17.43,10.15-29.27L248,278.64c15.67-4.4,24.54,2.4,24.55,14.78l-.31,69c0,5.64-2.95,11.76-13.67,14.77,10.14-2.12,14.56,5.56,14.58,16.13l-.1,65.8-34.63,9.73.07-71.44c-.06-3.26-2-4.9-6.36-3.68l-10.31,2.9-.1,76.91-34.63,9.73L187,326.58l34.63-9.73.18,56.07Z" transform="translate(-130.67 -44.18)"/><path class="cls-3" d="M276.93,491.16l25.94-172.9,44.32-12.45L371,431.57l-30.92,8.69-3.23-23-20,5.62-7.56,59.15Zm48.55-151-6.81,62.4,15-4.23Z" transform="translate(-130.67 -44.18)"/><path class="cls-3" d="M409.88,453.81l-31.13,8.74,0-165.6,55-15.46c13.61-3.82,20.11,2.73,20.09,11.3l.12,62.09c.1,18.19-30.31,24.55-44.11,26.6Zm11-95.47c3.3-.93,4.5-2,4.48-6.36V310.62c-.06-3.26-2-4.89-6.57-3.62l-9.07,2.55,0,51.92Z" transform="translate(-130.67 -44.18)"/><path class="cls-3" d="M496.45,429.48l-31.95,9,0-165.6,31.95-9Z" transform="translate(-130.67 -44.18)"/><path class="cls-3" d="M507.54,260.75l59.37-16.68c11.13-3.13,17.75,2.48,17.77,9.95l.08,99.64c.08,15.65-8.06,20.12-29.49,26.14l-47.62,13.38Zm31,12.6.05,89.08,9.89-2.78c4.95-1.39,5.9-3.12,5.9-6.21l-.09-78.68c0-3.82-1.12-5.52-5.86-4.18Z" transform="translate(-130.67 -44.18)"/><path class="cls-3" d="M630.73,250c-2.27.64-4.23,2.1-4.29,5l.14,26.93,16.7-4.69c11.13-3.13,20-.14,20,12.79l0,51.37c.11,5.25-5.78,9.64-12.17,11.43l-50.91,14.3.06-25.16,26-7.3c5.77-1.62,6.17-3,6.31-6.33l-.27-22.33c0-1.11-.2-1.77-2.05-1.25l-16.49,4.63c-13,3.65-18.21-1.26-18.34-10.88l0-51.37c.4-9.41,7.21-13.14,14.64-15.23l48-13.49-.07,23.89Z" transform="translate(-130.67 -44.18)"/><path class="cls-2" d="M222.87,363.73c3.92-1.1,6.58-3.12,6.49-8.93l-.13-46.06c-.08-4.53-3.05-6.43-8-5l-62,17.43,10.15-29.27,67.4-18.94c15.67-4.4,24.54,2.4,24.55,14.78l-.31,69c0,5.64-2.95,11.76-13.67,14.77,10.14-2.12,14.56,5.57,14.58,16.13l-.1,65.8-34.63,9.73.07-71.44c-.06-3.26-2-4.9-6.36-3.68l-10.31,2.9-.1,76.92-34.63,9.73-.15-156.64,34.63-9.73.18,56.06Z" transform="translate(-130.67 -44.18)"/><path class="cls-2" d="M265.65,485.44l25.94-172.9,44.32-12.45,23.8,125.77-30.92,8.69-3.23-23-20,5.62L298,476.35Zm48.55-151-6.81,62.4,15-4.23Z" transform="translate(-130.67 -44.18)"/><path class="cls-2" d="M398.6,448.09l-31.12,8.74,0-165.6,55-15.46c13.6-3.82,20.11,2.73,20.08,11.3l.12,62.09c.1,18.19-30.31,24.55-44.11,26.6Zm11-95.47c3.3-.93,4.5-2,4.48-6.36V304.9c-.06-3.26-2-4.9-6.56-3.62l-9.07,2.55,0,51.92Z" transform="translate(-130.67 -44.18)"/><path class="cls-2" d="M485.17,423.77l-31.95,9,0-165.6,31.95-9Z" transform="translate(-130.67 -44.18)"/><path class="cls-2" d="M496.26,255l59.37-16.68c11.13-3.13,17.75,2.48,17.77,9.95l.08,99.64c.08,15.65-8.06,20.12-29.49,26.14l-47.62,13.38Zm31,12.6.05,89.08,9.89-2.78c4.95-1.39,5.9-3.12,5.9-6.21L543,269c0-3.82-1.12-5.52-5.86-4.18Z" transform="translate(-130.67 -44.18)"/><path class="cls-2" d="M619.45,244.29c-2.27.64-4.23,2.1-4.29,5l.14,26.93,16.7-4.69c11.13-3.13,20-.14,20,12.8l0,51.37c.11,5.25-5.78,9.64-12.17,11.43l-50.91,14.3L589,336.3l26-7.3c5.77-1.62,6.17-3,6.31-6.33L621,300.34c0-1.11-.2-1.77-2.05-1.24l-16.49,4.63c-13,3.65-18.21-1.26-18.34-10.88l0-51.37c.4-9.41,7.21-13.14,14.64-15.23l48-13.49-.07,23.89Z" transform="translate(-130.67 -44.18)"/><path class="cls-1" d="M325.45,257.07a.47.47,0,0,1,0,.46l-9,26.72a1.28,1.28,0,0,1-.39.58,1.52,1.52,0,0,1-.61.35l-.36.1-4.1,1.16-.4.11a.75.75,0,0,1-.55,0,.55.55,0,0,1-.3-.39l-4-16.07-5.68,18.79a1.31,1.31,0,0,1-.37.58,1.41,1.41,0,0,1-.59.35l-.36.1-4.1,1.16-.4.11a.84.84,0,0,1-.58,0,.53.53,0,0,1-.32-.39l-6.65-22.31a.6.6,0,0,1,.08-.5.8.8,0,0,1,.47-.32l5.79-1.63a.83.83,0,0,1,.57,0,.53.53,0,0,1,.32.38l3.19,14.4,5.54-16.86a1.4,1.4,0,0,1,.8-.88l.16,0,5-1.4.16,0q.64,0,.73.45l4,14.16,4.7-16.62a1.31,1.31,0,0,1,.37-.58,1.41,1.41,0,0,1,.59-.35L325,257C325.21,256.95,325.36,257,325.45,257.07Z" transform="translate(-130.67 -44.18)"/><path class="cls-1" d="M351.09,253.31a2.9,2.9,0,0,1,.19.57,2.24,2.24,0,0,1,.07.64l0,.7-.65,13.26-.09,1.92a3,3,0,0,1-.13.69,5.56,5.56,0,0,1-.25.69l-3.87,4.44a3.44,3.44,0,0,1-.71.42,5.38,5.38,0,0,1-.75.28l-.85.24-9.74,2.74-2.17.61a4.11,4.11,0,0,1-.72.13,2,2,0,0,1-.67,0l-3.54-2.36a1.42,1.42,0,0,1-.21-.56,2.8,2.8,0,0,1,0-.64l0-.77.64-13.18.09-1.92a3.51,3.51,0,0,1,.11-.69,2.8,2.8,0,0,1,.27-.7l3.87-4.44a7,7,0,0,1,.69-.4,4.14,4.14,0,0,1,.73-.3l1.73-.49,8.45-2.38,2.57-.72a3.58,3.58,0,0,1,.74-.12,4.18,4.18,0,0,1,.69,0Zm-6.92,4.5-9.45,2.66-.65,13.33,9.45-2.66Z" transform="translate(-130.67 -44.18)"/><path class="cls-1" d="M379.09,266.7a.35.35,0,0,1,0,.41.75.75,0,0,1-.45.29l-6.4,1.8a1.23,1.23,0,0,1-.64,0,.74.74,0,0,1-.46-.29L367,263.18c0-.08-.14-.11-.27-.07l-4.55,1.28a.25.25,0,0,0-.21.24l-.33,6.87a1,1,0,0,1-.8.92L355.28,274q-.77.22-.73-.49l.59-12,.31-6.31.3-6.09a.91.91,0,0,1,.25-.56,1.13,1.13,0,0,1,.55-.36l17.42-4.9a3.58,3.58,0,0,1,.74-.12,4.16,4.16,0,0,1,.7,0l3.54,2.36a2.88,2.88,0,0,1,.19.57,2.26,2.26,0,0,1,.07.64l-.24,5-.13,2.69,0,.37a1.89,1.89,0,0,1-.15.57,4.91,4.91,0,0,1-.31.65l-3.87,4.51Zm-7.07-17-9.74,2.74-.31,6.28,4.63-1.3,4.26-1.2.12,0,.72-.2,0-.48.2-4.17Z" transform="translate(-130.67 -44.18)"/><path class="cls-1" d="M391.17,244.76a.84.84,0,0,0-.25.54l-.58,12a.46.46,0,0,0,.2.44.62.62,0,0,0,.53.05L404,254.12a.68.68,0,0,1,.54,0,.42.42,0,0,1,.2.42l-.24,4.87a.92.92,0,0,1-.25.56,1.13,1.13,0,0,1-.55.36l-12.35,3.48-2.45.69-.52.15a4.17,4.17,0,0,1-.72.13,2,2,0,0,1-.67,0l-3.54-2.36a1.42,1.42,0,0,1-.21-.56,2.88,2.88,0,0,1,0-.64V261l.19-3.91.43-8.79.1-2,0-1a3.57,3.57,0,0,1,.11-.69,2.71,2.71,0,0,1,.27-.7l3.87-4.44.59-.37a2.29,2.29,0,0,1,.47-.22l.36-.1.52-.15.16,0,.08,0,.93-.26,13.64-3.84a.63.63,0,0,1,.53.05.46.46,0,0,1,.2.44l-.24,4.87a.91.91,0,0,1-.25.56,1.12,1.12,0,0,1-.55.36l-12.91,3.63A1.17,1.17,0,0,0,391.17,244.76Z" transform="translate(-130.67 -44.18)"/><path class="cls-1" d="M431.26,227.31a.46.46,0,0,1,.2.44l-.1,2.11L431.3,231l-.07,1.44a.84.84,0,0,1-.24.54,1.18,1.18,0,0,1-.55.34l-2.86.8-8.37,2.36-2.25.63a.25.25,0,0,0-.21.24l-.2,4c0,.1.06.13.19.09l11.51-3.24a.56.56,0,0,1,.51.06.49.49,0,0,1,.18.44l-.18,3.69a.93.93,0,0,1-.22.56,1,1,0,0,1-.53.35l-11.51,3.24a.25.25,0,0,0-.21.24l-.09,1.81v0l-.1,2.14c0,.12.06.17.19.13l1.69-.48,9.09-2.56,2.7-.76a.63.63,0,0,1,.53.05.46.46,0,0,1,.2.44l-.07,1.48-.09,1.92-.06,1.22a.92.92,0,0,1-.25.56,1.13,1.13,0,0,1-.55.36l-2.29.65L411.89,258l-2.41.68q-.76.22-.73-.49l.06-1.25,1-21.42.09-1.77a.91.91,0,0,1,.25-.56,1.13,1.13,0,0,1,.55-.36l2.94-.83,15.77-4.44,1.29-.36A.63.63,0,0,1,431.26,227.31Z" transform="translate(-130.67 -44.18)"/><path class="cls-1" d="M456.35,234.47a2.28,2.28,0,0,1,.07.64l-.05,1-.13,2.73-.09,1.81a3,3,0,0,1-.13.69,5.43,5.43,0,0,1-.25.69l-3.87,4.44a3.44,3.44,0,0,1-.71.42,5.42,5.42,0,0,1-.75.28l-.88.25L440.41,250l-5.27,1.48c-.51.14-.75,0-.73-.49l.22-4.47a.91.91,0,0,1,.24-.56,1.13,1.13,0,0,1,.55-.36l6.4-1.8,3.46-1,3.82-1.08a1.17,1.17,0,0,0,.55-.34.84.84,0,0,0,.24-.54l.15-3.07a.46.46,0,0,0-.2-.44.62.62,0,0,0-.53-.05l-3.62,1-4.83,1.36-.56.16a4.21,4.21,0,0,1-.72.13,3.26,3.26,0,0,1-.67,0l-3.54-2.36a1.77,1.77,0,0,1-.21-.6,2.78,2.78,0,0,1,0-.64l0-.7.2-4.21,0-.66a3.52,3.52,0,0,1,.11-.69,2.74,2.74,0,0,1,.27-.7l3.87-4.44a7.22,7.22,0,0,1,.69-.4,4.14,4.14,0,0,1,.73-.3l.76-.22L453,221l2.49-.7a.63.63,0,0,1,.53.05.46.46,0,0,1,.2.44l-.22,4.54a.92.92,0,0,1-.25.56,1.14,1.14,0,0,1-.55.36l-2.82.79L445,229.1l-2.62.74a1.17,1.17,0,0,0-.55.34.84.84,0,0,0-.24.54l-.15,3a.45.45,0,0,0,.2.44.61.61,0,0,0,.53.05l2.58-.72,5.47-1.54,1-.27a4.62,4.62,0,0,1,.74-.13,3.21,3.21,0,0,1,.69,0l3.54,2.35A4.48,4.48,0,0,1,456.35,234.47Z" transform="translate(-130.67 -44.18)"/><path class="cls-1" d="M480.79,218.67a.92.92,0,0,1-.25.56,1.13,1.13,0,0,1-.55.36l-5.71,1.61a1.18,1.18,0,0,0-.55.34.85.85,0,0,0-.24.54l-.89,18.2a.93.93,0,0,1-.23.56,1,1,0,0,1-.53.35l-5.59,1.57a.62.62,0,0,1-.53,0,.46.46,0,0,1-.2-.44l.89-18.2a.44.44,0,0,0-.18-.42.61.61,0,0,0-.51,0L460,225.21a.62.62,0,0,1-.53-.05.46.46,0,0,1-.2-.44l.24-4.87a1,1,0,0,1,.8-.92l5.71-1.61,1.49-.42,5.59-1.57,1.49-.42,5.71-1.61a.63.63,0,0,1,.53.05.46.46,0,0,1,.2.44Z" transform="translate(-130.67 -44.18)"/><path class="cls-1" d="M505,206.54a.46.46,0,0,1,.2.44l-.1,2.11-.05,1.11-.07,1.44a.84.84,0,0,1-.24.54,1.18,1.18,0,0,1-.55.34l-2.86.8L493,215.67l-2.25.63a.25.25,0,0,0-.21.24l-.2,4c0,.1.06.13.19.09L502,217.42a.56.56,0,0,1,.51.06.49.49,0,0,1,.18.44l-.18,3.69a.94.94,0,0,1-.22.56,1,1,0,0,1-.53.35l-11.51,3.24a.25.25,0,0,0-.21.24l-.09,1.81v0l-.1,2.14c0,.12.06.17.19.13l1.69-.48,9.09-2.56,2.7-.76a.62.62,0,0,1,.53.05.46.46,0,0,1,.2.44l-.07,1.48-.09,1.92-.06,1.22a.92.92,0,0,1-.25.56,1.12,1.12,0,0,1-.55.36L501,233l-15.29,4.3-2.42.68q-.76.22-.73-.49l.06-1.25,1-21.42.09-1.77a.91.91,0,0,1,.25-.56,1.13,1.13,0,0,1,.55-.36l2.94-.83,15.77-4.44,1.29-.36A.62.62,0,0,1,505,206.54Z" transform="translate(-130.67 -44.18)"/><path class="cls-1" d="M532.86,223.42a.35.35,0,0,1,0,.41.75.75,0,0,1-.45.29l-6.4,1.8a1.23,1.23,0,0,1-.63,0,.74.74,0,0,1-.46-.29l-4.17-5.75c0-.08-.14-.11-.27-.07l-4.55,1.28a.25.25,0,0,0-.21.24l-.33,6.87a1,1,0,0,1-.8.92L509,230.71q-.77.21-.73-.49l.59-12,.31-6.31.3-6.09a.91.91,0,0,1,.25-.56,1.12,1.12,0,0,1,.55-.36l17.42-4.9a3.63,3.63,0,0,1,.74-.12,4.13,4.13,0,0,1,.69,0l3.54,2.36a2.93,2.93,0,0,1,.19.57,2.31,2.31,0,0,1,.07.64l-.24,5-.13,2.69,0,.37a1.85,1.85,0,0,1-.15.57,4.9,4.9,0,0,1-.31.65l-3.87,4.51Zm-7.07-17-9.74,2.74-.31,6.28,4.63-1.3,4.26-1.2.12,0,.72-.2,0-.48.2-4.17Z" transform="translate(-130.67 -44.18)"/><path class="cls-1" d="M558.66,205.68a2.23,2.23,0,0,1,.07.64l-.05,1-.13,2.73-.09,1.81a3.06,3.06,0,0,1-.13.69,5.33,5.33,0,0,1-.25.69l-3.87,4.44a3.39,3.39,0,0,1-.71.42,5.33,5.33,0,0,1-.75.28l-.88.25-9.13,2.57-5.27,1.48q-.76.22-.73-.49l.22-4.47a.91.91,0,0,1,.24-.56,1.13,1.13,0,0,1,.55-.36l6.4-1.8,3.46-1,3.82-1.08a1.18,1.18,0,0,0,.55-.34.84.84,0,0,0,.24-.54l.15-3.07a.45.45,0,0,0-.2-.43.62.62,0,0,0-.53-.05l-3.62,1-4.83,1.36-.56.16a4.12,4.12,0,0,1-.72.13,3.18,3.18,0,0,1-.68,0l-3.54-2.35a1.73,1.73,0,0,1-.21-.6,2.78,2.78,0,0,1,0-.64l0-.7.21-4.21,0-.66a3.57,3.57,0,0,1,.11-.69,2.72,2.72,0,0,1,.27-.7l3.87-4.44a7.16,7.16,0,0,1,.7-.4,4.16,4.16,0,0,1,.73-.3l.76-.21,11.18-3.15,2.49-.7a.63.63,0,0,1,.53,0,.46.46,0,0,1,.2.44l-.22,4.54a.92.92,0,0,1-.25.56,1.13,1.13,0,0,1-.55.36l-2.81.79-7.4,2.08-2.62.74a1.17,1.17,0,0,0-.55.34.84.84,0,0,0-.25.54l-.15,3a.45.45,0,0,0,.2.44.62.62,0,0,0,.53.05l2.58-.72,5.47-1.54,1-.27a4.64,4.64,0,0,1,.74-.14,3.24,3.24,0,0,1,.69,0l3.54,2.36A4.36,4.36,0,0,1,558.66,205.68Z" transform="translate(-130.67 -44.18)"/><path class="cls-1" d="M586.35,183.46a.63.63,0,0,1,.53,0,.46.46,0,0,1,.2.44l-1.19,24.44a.92.92,0,0,1-.24.56,1.14,1.14,0,0,1-.55.36l-5.59,1.57a.62.62,0,0,1-.53,0,.46.46,0,0,1-.2-.44l.41-8.53a.44.44,0,0,0-.18-.42.61.61,0,0,0-.51,0l-8,2.24a1.17,1.17,0,0,0-.55.34.84.84,0,0,0-.25.54l-.41,8.53a1,1,0,0,1-.8.92L563,215.54q-.77.22-.73-.49l1.19-24.44a1,1,0,0,1,.8-.92l5.55-1.56c.51-.14.75,0,.73.49l-.4,8.27q0,.7.73.49l8-2.24a1,1,0,0,0,.53-.35,1,1,0,0,0,.23-.56L580,186a.91.91,0,0,1,.25-.56,1.13,1.13,0,0,1,.55-.36Z" transform="translate(-130.67 -44.18)"/><path class="cls-1" d="M597.23,205.2a1,1,0,0,1-.8.92l-5.55,1.56q-.77.21-.73-.49l1.19-24.44a1,1,0,0,1,.8-.92l5.55-1.56c.51-.14.75,0,.73.49Z" transform="translate(-130.67 -44.18)"/><path class="cls-1" d="M626,197.23a.34.34,0,0,1,0,.41.75.75,0,0,1-.45.29l-6.4,1.8a1.24,1.24,0,0,1-.64,0,.75.75,0,0,1-.46-.29l-4.16-5.75c0-.08-.14-.11-.27-.07L609,194.92a.25.25,0,0,0-.21.24L608.5,202a1,1,0,0,1-.8.92l-5.55,1.56q-.76.22-.73-.49l.59-12,.31-6.31.3-6.09a.92.92,0,0,1,.25-.56,1.14,1.14,0,0,1,.55-.36l17.42-4.9a3.61,3.61,0,0,1,.74-.12,4.14,4.14,0,0,1,.69,0L625.8,176a2.87,2.87,0,0,1,.19.57,2.2,2.2,0,0,1,.07.64l-.24,5-.13,2.69,0,.37a1.94,1.94,0,0,1-.15.57,4.87,4.87,0,0,1-.31.65L621.34,191Zm-7.07-17L609.15,183l-.31,6.28,4.63-1.3,4.27-1.2.12,0,.72-.2,0-.48.2-4.17Z" transform="translate(-130.67 -44.18)"/><path class="cls-1" d="M652.46,165.06a.46.46,0,0,1,.2.44l-.1,2.11-.05,1.11-.07,1.44a.84.84,0,0,1-.24.54,1.18,1.18,0,0,1-.55.34l-2.86.8-8.37,2.36-2.25.63a.25.25,0,0,0-.21.24l-.2,4c0,.1.06.13.19.09l11.51-3.24a.56.56,0,0,1,.51.06.49.49,0,0,1,.18.44l-.18,3.69a1,1,0,0,1-.22.56,1,1,0,0,1-.53.35l-11.51,3.24a.25.25,0,0,0-.21.24l-.09,1.81v0l-.1,2.14c0,.12.06.17.19.13l1.69-.48,9.09-2.56,2.7-.76a.62.62,0,0,1,.53.05.46.46,0,0,1,.2.44l-.07,1.48-.09,1.92-.06,1.22a.92.92,0,0,1-.24.56,1.14,1.14,0,0,1-.55.36l-2.29.65-15.29,4.3-2.41.68q-.76.22-.73-.49l.06-1.25,1-21.42.09-1.77a.91.91,0,0,1,.25-.56,1.13,1.13,0,0,1,.55-.36l2.94-.83,15.77-4.44,1.29-.36A.63.63,0,0,1,652.46,165.06Z" transform="translate(-130.67 -44.18)"/></g></svg>