<svg id="911a30f6-f05d-4b15-a720-77d9e4e510be" data-name="Layer 1" xmlns="http://www.w3.org/2000/svg" viewBox="0 0 853.6 798.1"><title>wccc-logo</title><path d="M1175.2,180.2S1051.4,252,959.8,164.3v-.6l-.4.3-.4-.3v.6c-91.6,87.7-215.4,15.9-215.4,15.9l5.1,273.6s-8.6,191,210.3,259v.2h.8v-.2c218.9-68,210.3-259,210.3-259Z" transform="translate(-532.8 -141)" style="fill:#fff"/><path d="M901.2,252.7s23.7-2.3,19.5,4.2c-1.9,2.3-11.6,1.9-11.6,3.3.9,6.1,1.9,23.4-11.6,42.1-6.1,8.9-4.2,38.4-9.8,48.2-10.2,17.8-26.5,14.5-28.4,14.1-7.4-.9-17.7-5.1-22.3-19.2-14.9,3.2-26.5-6.6-30.7-11.7-7.5-8.4-10.2-24.3-2.3-38.8s23.7-16.4,38.6-18.7c27.4-4.2,29.3-27.6,57.7-22.5" transform="translate(-532.8 -141)" style="fill:#3c3c3b"/><path d="M1108.1,252.7s23.7-2.3,19.5,4.2c-1.9,2.3-11.6,1.9-11.6,3.3.9,6.1,1.9,23.4-11.6,42.1-6.1,8.9-4.2,38.4-9.8,48.2-10.2,17.8-26.5,14.5-28.4,14.1-7.4-.9-17.7-5.1-22.3-19.2-14.9,3.2-26.5-6.6-30.7-11.7-7.5-8.4-10.2-24.3-2.3-38.8s23.7-16.4,38.6-18.7c27.4-4.2,29.3-27.6,57.7-22.5" transform="translate(-532.8 -141)" style="fill:#3c3c3b"/><path d="M1000.7,490.5s23.7-2.3,19.5,3.8c-1.8,2.8-11.6,1.8-11.6,3.3,1.4,6.5,1.8,23.9-11.6,42.6-6,8.4-3.7,38.4-9.8,48.2-10.2,17.8-26.5,14-28.3,14-7.4-.9-17.7-5.6-21.9-19.2-14.9,2.8-26.5-7-30.7-11.7-7.4-8.4-10.7-24.4-2.8-38.8s23.7-16.4,38.6-18.7c27.4-4.2,29.8-28.1,57.6-22.9" transform="translate(-532.8 -141)" style="fill:#3c3c3b"/><rect x="216.2" y="304.4" width="420.6" height="5.2" style="fill:#9c9b9b"/><rect x="216.7" y="290" width="420.6" height="5.2" style="fill:#9c9b9b"/><rect x="216.7" y="275.2" width="420.6" height="5.2" style="fill:#9c9b9b"/><rect x="216.2" y="260.8" width="421.1" height="5.3" style="fill:#9c9b9b"/><rect x="215.8" y="245.9" width="421.1" height="5.2" style="fill:#9c9b9b"/><path d="M959.6,702.1c-213-72.9-210-235.2-210-256.6s5.3-244.4,5.3-244.4,115.9,67.5,204.7-12.3c88.8,79.8,204.6,12.3,204.6,12.3s5.3,223,5.3,244.4,3.1,183.6-209.9,256.6m0-561.1c-110.9,105.1-229.1,10.1-229.1,10.1s17,301.4,21,355.3c5.1,68.8,65.2,166.4,208.1,220.1,142.9-53.8,202.9-151.3,208.1-220.1,4-54,21-355.3,21-355.3s-118.2,95-229.1-10.1" transform="translate(-532.8 -141)" style="fill:#006430"/><polygon points="0.1 662.3 15.9 662.3 26.3 704.7 26.5 704.7 40.3 662.3 53.7 662.3 67.3 705.8 67.5 705.8 78.5 662.3 93.2 662.3 74 728.4 61.1 728.4 46.6 682.6 46.5 682.6 32 728.4 19.6 728.4 0.1 662.3" style="fill:#fff"/><path d="M644.9,836.3a25.2,25.2,0,0,0,1.4,8.5,19.8,19.8,0,0,0,4.1,6.7,17.9,17.9,0,0,0,6.4,4.4,22.8,22.8,0,0,0,16.8,0,18.3,18.3,0,0,0,6.4-4.4,19.8,19.8,0,0,0,4.1-6.7,23.3,23.3,0,0,0,1.4-8.5,26.1,26.1,0,0,0-1.4-8.5A20.3,20.3,0,0,0,680,821a17.9,17.9,0,0,0-6.4-4.4,22.8,22.8,0,0,0-16.8,0,18.3,18.3,0,0,0-6.4,4.4,18.8,18.8,0,0,0-4.1,6.8,26.1,26.1,0,0,0-1.4,8.5m-15,0a38.9,38.9,0,0,1,2.6-14.4,32.3,32.3,0,0,1,7.4-11,32.9,32.9,0,0,1,11.2-6.9,43.2,43.2,0,0,1,28.4,0,32,32,0,0,1,11.2,6.9,31.4,31.4,0,0,1,7.4,11,36.9,36.9,0,0,1,2.6,14.4,38.9,38.9,0,0,1-2.6,14.4,32.3,32.3,0,0,1-7.4,11,32.9,32.9,0,0,1-11.2,6.9,43.2,43.2,0,0,1-28.4,0,32,32,0,0,1-11.2-6.9,31.4,31.4,0,0,1-7.4-11,36.9,36.9,0,0,1-2.6-14.4" transform="translate(-532.8 -141)" style="fill:#fff"/><path d="M725.9,830.6h12.6a15,15,0,0,0,3.9-.8,7,7,0,0,0,2.9-2.2,6.6,6.6,0,0,0,1.2-4.2,6.8,6.8,0,0,0-1-4,6.4,6.4,0,0,0-2.6-2.3,13.7,13.7,0,0,0-3.6-1.1l-4-.3h-9.5v15Zm-14.5-27.3h25.4a41.9,41.9,0,0,1,9.5,1,22.4,22.4,0,0,1,7.9,3.3,16.3,16.3,0,0,1,5.4,6.2,21.5,21.5,0,0,1,2,9.7,19.5,19.5,0,0,1-3.6,11.9c-2.4,3.3-5.9,5.3-10.6,6.2l16.7,27.9H746.8L733,843h-7.1v26.4H711.4Z" transform="translate(-532.8 -141)" style="fill:#fff"/><path d="M815.3,820.5a14.5,14.5,0,0,0-5.2-4,18.1,18.1,0,0,0-7.2-1.4,17.9,17.9,0,0,0-7.6,1.6,18.6,18.6,0,0,0-6,4.4,21.8,21.8,0,0,0-4,6.8,23.3,23.3,0,0,0-1.4,8.5,25.2,25.2,0,0,0,1.4,8.5,23.2,23.2,0,0,0,3.9,6.7,16.9,16.9,0,0,0,5.9,4.4,16.6,16.6,0,0,0,7.3,1.6,15.7,15.7,0,0,0,7.9-1.9,14.7,14.7,0,0,0,5.6-5.2l12,9.1a25.6,25.6,0,0,1-10.6,8.7,32.3,32.3,0,0,1-13.2,2.8,40.7,40.7,0,0,1-14.2-2.4,32,32,0,0,1-11.2-6.9,31.4,31.4,0,0,1-7.4-11,36.9,36.9,0,0,1-2.6-14.4,38.9,38.9,0,0,1,2.6-14.4,32.3,32.3,0,0,1,7.4-11,32.9,32.9,0,0,1,11.2-6.9,40.7,40.7,0,0,1,14.2-2.4,39,39,0,0,1,5.8.5,30.3,30.3,0,0,1,5.9,1.6,23.4,23.4,0,0,1,5.6,3,20.9,20.9,0,0,1,4.8,4.6Z" transform="translate(-532.8 -141)" style="fill:#fff"/><polygon points="304.6 662.3 349.2 662.3 349.2 675.7 319.1 675.7 319.1 688 347.5 688 347.5 701.5 319.1 701.5 319.1 714.9 350.9 714.9 350.9 728.4 304.6 728.4 304.6 662.3" style="fill:#fff"/><path d="M928.6,819.4a10.4,10.4,0,0,0-4.8-3.3,17.4,17.4,0,0,0-5.7-1.1,11.7,11.7,0,0,0-3.2.4,9.6,9.6,0,0,0-3.2,1.2,6.1,6.1,0,0,0-2.4,2.1,5.5,5.5,0,0,0-.9,3.2,5.3,5.3,0,0,0,2.2,4.6,19.5,19.5,0,0,0,5.6,2.7l7.3,2.2a28,28,0,0,1,7.3,3.2,17.3,17.3,0,0,1,5.6,5.5c1.5,2.3,2.2,5.4,2.2,9.2a21.9,21.9,0,0,1-2,9.6,20.4,20.4,0,0,1-5.5,6.8,23.6,23.6,0,0,1-8.1,4,34.4,34.4,0,0,1-9.7,1.3,35.4,35.4,0,0,1-11.9-2,30.8,30.8,0,0,1-10.2-6.3l10.3-11.4a15.6,15.6,0,0,0,5.6,4.6,15.9,15.9,0,0,0,7,1.6,14.7,14.7,0,0,0,3.6-.4,10.2,10.2,0,0,0,3.2-1.3,6.9,6.9,0,0,0,2.3-2.2,5.4,5.4,0,0,0,.9-3.1,5.6,5.6,0,0,0-2.3-4.7,19,19,0,0,0-5.7-2.9l-7.4-2.4a30.9,30.9,0,0,1-7.4-3.3,18.4,18.4,0,0,1-5.7-5.4,15.6,15.6,0,0,1-2.3-8.9,19.6,19.6,0,0,1,2.1-9.3,19.2,19.2,0,0,1,5.6-6.7,24.2,24.2,0,0,1,8-4.1,32.4,32.4,0,0,1,9.4-1.4,34.7,34.7,0,0,1,10.7,1.6,25.1,25.1,0,0,1,9.4,5.3Z" transform="translate(-532.8 -141)" style="fill:#fff"/><polygon points="430.2 675.2 411.5 675.2 411.5 662.3 463.4 662.3 463.4 675.2 444.7 675.2 444.7 728.4 430.2 728.4 430.2 675.2" style="fill:#fff"/><polygon points="472.2 662.3 516.8 662.3 516.8 675.7 486.6 675.7 486.6 688 515.1 688 515.1 701.5 486.6 701.5 486.6 714.9 518.4 714.9 518.4 728.4 472.2 728.4 472.2 662.3" style="fill:#fff"/><path d="M1078.2,830.6h12.6a14.1,14.1,0,0,0,3.9-.8,7,7,0,0,0,2.9-2.2,6.6,6.6,0,0,0,1.2-4.2,6.8,6.8,0,0,0-1-4,6.4,6.4,0,0,0-2.6-2.3,13.7,13.7,0,0,0-3.6-1.1l-4-.3h-9.5v15Zm-14.5-27.3h25.4a41.9,41.9,0,0,1,9.5,1,22.4,22.4,0,0,1,7.9,3.3,16.3,16.3,0,0,1,5.4,6.2,21.5,21.5,0,0,1,2,9.7,19.5,19.5,0,0,1-3.6,11.9c-2.4,3.3-5.9,5.3-10.6,6.2l16.7,27.9h-17.3l-13.7-26.4h-7.1v26.4h-14.5V803.3Z" transform="translate(-532.8 -141)" style="fill:#fff"/><path d="M1157.2,819.4a10.4,10.4,0,0,0-4.8-3.3,17.4,17.4,0,0,0-5.7-1.1,11.7,11.7,0,0,0-3.2.4,9.6,9.6,0,0,0-3.2,1.2,6.1,6.1,0,0,0-2.4,2.1,5.5,5.5,0,0,0-.9,3.2,5.3,5.3,0,0,0,2.2,4.6,19.5,19.5,0,0,0,5.6,2.7l7.3,2.2a28,28,0,0,1,7.3,3.2,17.3,17.3,0,0,1,5.6,5.5c1.5,2.3,2.2,5.4,2.2,9.2a21.9,21.9,0,0,1-2,9.6,20.4,20.4,0,0,1-5.5,6.8,23.6,23.6,0,0,1-8.1,4,34.4,34.4,0,0,1-9.7,1.3,35.4,35.4,0,0,1-11.9-2,30.8,30.8,0,0,1-10.2-6.3l10.3-11.4a15.6,15.6,0,0,0,5.6,4.6,15.9,15.9,0,0,0,7,1.6,14.7,14.7,0,0,0,3.6-.4,10.2,10.2,0,0,0,3.2-1.3,6.9,6.9,0,0,0,2.3-2.2,5.4,5.4,0,0,0,.9-3.1,5.6,5.6,0,0,0-2.3-4.7,19,19,0,0,0-5.7-2.9l-7.4-2.4a32.8,32.8,0,0,1-7.4-3.3,18.4,18.4,0,0,1-5.7-5.4,15.6,15.6,0,0,1-2.3-8.9,19.6,19.6,0,0,1,2.1-9.3,19.2,19.2,0,0,1,5.6-6.7,24.2,24.2,0,0,1,8-4.1,32.4,32.4,0,0,1,9.4-1.4,34.7,34.7,0,0,1,10.7,1.6,25.1,25.1,0,0,1,9.4,5.3Z" transform="translate(-532.8 -141)" style="fill:#fff"/><polygon points="646.1 662.3 660.5 662.3 660.5 686.9 688.6 686.9 688.6 662.3 703.1 662.3 703.1 728.4 688.6 728.4 688.6 699.8 660.5 699.8 660.5 728.4 646.1 728.4 646.1 662.3" style="fill:#fff"/><rect x="717.2" y="662.3" width="14.5" height="66.1" style="fill:#fff"/><path d="M1293,830.6h12.6a14.1,14.1,0,0,0,3.9-.8,7,7,0,0,0,2.9-2.2,6.6,6.6,0,0,0,1.2-4.2,6.8,6.8,0,0,0-1-4,6.4,6.4,0,0,0-2.6-2.3,13.7,13.7,0,0,0-3.6-1.1l-4-.3h-9.5v15Zm-14.5-27.3h25.4a41.9,41.9,0,0,1,9.5,1,22.4,22.4,0,0,1,7.9,3.3,16.3,16.3,0,0,1,5.4,6.2,21.5,21.5,0,0,1,2,9.7,19.5,19.5,0,0,1-3.6,11.9c-2.4,3.3-5.9,5.3-10.6,6.2l16.7,27.9h-17.3l-13.7-26.4h-7.1v26.4h-14.5V803.3Z" transform="translate(-532.8 -141)" style="fill:#fff"/><polygon points="807.3 662.3 851.8 662.3 851.8 675.7 821.7 675.7 821.7 688 850.2 688 850.2 701.5 821.7 701.5 821.7 714.9 853.5 714.9 853.5 728.4 807.3 728.4 807.3 662.3" style="fill:#fff"/><path d="M564.1,905.2a11.6,11.6,0,0,0-4.4-3.5,13.3,13.3,0,0,0-5.5-1.2,14.2,14.2,0,0,0-11.1,4.9,15.9,15.9,0,0,0-3.1,5.4,20.8,20.8,0,0,0-1.1,6.6,17.9,17.9,0,0,0,1,6.2,15.8,15.8,0,0,0,3,5.2,13,13,0,0,0,4.8,3.5,14.7,14.7,0,0,0,6.4,1.3,12.4,12.4,0,0,0,6.2-1.5,13.6,13.6,0,0,0,4.5-4.1l4.7,3.6-1.6,1.9a16.7,16.7,0,0,1-3.1,2.4,21.9,21.9,0,0,1-4.6,2.1,19.7,19.7,0,0,1-6.2.9,19.3,19.3,0,0,1-8.8-1.9,21.6,21.6,0,0,1-10.9-11.9,21.6,21.6,0,0,1-1.5-7.8,23.5,23.5,0,0,1,1.6-8.9,20.7,20.7,0,0,1,4.4-7.1,19,19,0,0,1,6.8-4.6,22.1,22.1,0,0,1,8.7-1.6,20.4,20.4,0,0,1,8,1.6,14.9,14.9,0,0,1,6.4,4.9Z" transform="translate(-532.8 -141)" style="fill:#fff"/><path d="M605.9,933.7a14.7,14.7,0,0,0,6.4-1.3,16,16,0,0,0,4.9-3.6,14,14,0,0,0,3.1-5.3,19.7,19.7,0,0,0,1.1-6.5,20.2,20.2,0,0,0-1.1-6.5,16.5,16.5,0,0,0-3.1-5.3,16,16,0,0,0-4.9-3.6,16.4,16.4,0,0,0-12.8,0,16,16,0,0,0-4.9,3.6,14,14,0,0,0-3.1,5.3,19.7,19.7,0,0,0-1.1,6.5,20.2,20.2,0,0,0,1.1,6.5,16.5,16.5,0,0,0,3.1,5.3,16,16,0,0,0,4.9,3.6,15.3,15.3,0,0,0,6.4,1.3m0,5.3a22.9,22.9,0,0,1-8.7-1.7,21.5,21.5,0,0,1-6.8-4.6,21.9,21.9,0,0,1-4.4-7,24.5,24.5,0,0,1,0-17.4,21.9,21.9,0,0,1,4.4-7,19,19,0,0,1,6.8-4.6,22.5,22.5,0,0,1,8.7-1.7,22.9,22.9,0,0,1,8.7,1.7,21.5,21.5,0,0,1,6.8,4.6,20.3,20.3,0,0,1,4.4,7,24.5,24.5,0,0,1,0,17.4,21.9,21.9,0,0,1-4.4,7,19,19,0,0,1-6.8,4.6,22.1,22.1,0,0,1-8.7,1.7" transform="translate(-532.8 -141)" style="fill:#fff"/><path d="M650.9,896.2v25.6a19,19,0,0,0,.5,4,11.3,11.3,0,0,0,1.7,3.9,9.9,9.9,0,0,0,3.2,2.9,10.1,10.1,0,0,0,4.9,1.1,10.4,10.4,0,0,0,4.9-1.1,8.9,8.9,0,0,0,3.2-2.9,11.3,11.3,0,0,0,1.7-3.9,19,19,0,0,0,.5-4V896.2h5.6v26.5a17.3,17.3,0,0,1-1.2,6.6,15.1,15.1,0,0,1-3.4,5.2,14.3,14.3,0,0,1-5,3.4,16.1,16.1,0,0,1-6.3,1.2,16.8,16.8,0,0,1-6.3-1.2,14.3,14.3,0,0,1-5-3.4,16.7,16.7,0,0,1-3.4-5.2,17.6,17.6,0,0,1-1.2-6.6V896.2Z" transform="translate(-532.8 -141)" style="fill:#fff"/><polygon points="164.9 755.2 172.2 755.2 194.9 789.5 195 789.5 195 755.2 200.6 755.2 200.6 796.9 193.5 796.9 170.6 762.6 170.5 762.6 170.5 796.9 164.9 796.9 164.9 755.2" style="fill:#fff"/><polygon points="230.5 760.5 217.2 760.5 217.2 755.2 249.3 755.2 249.3 760.5 236 760.5 236 796.9 230.5 796.9 230.5 760.5" style="fill:#fff"/><polygon points="275.6 779.1 260.1 755.2 267.2 755.2 278.4 773.5 290 755.2 296.8 755.2 281.2 779.1 281.2 796.9 275.6 796.9 275.6 779.1" style="fill:#fff"/><path d="M900.5,905.2a11.6,11.6,0,0,0-4.4-3.5,13.3,13.3,0,0,0-5.5-1.2,14.2,14.2,0,0,0-11.1,4.9,15.9,15.9,0,0,0-3.1,5.4,20.8,20.8,0,0,0-1.1,6.6,17.9,17.9,0,0,0,1,6.2,15.8,15.8,0,0,0,3,5.2,13,13,0,0,0,4.8,3.5,14.7,14.7,0,0,0,6.4,1.3,12.4,12.4,0,0,0,6.2-1.5,13.6,13.6,0,0,0,4.5-4.1l4.7,3.6-1.6,1.9a16.7,16.7,0,0,1-3.1,2.4,21.9,21.9,0,0,1-4.6,2.1,19.7,19.7,0,0,1-6.2.9,19.3,19.3,0,0,1-8.8-1.9,21.6,21.6,0,0,1-10.9-11.9,21.6,21.6,0,0,1-1.5-7.8,23.5,23.5,0,0,1,1.6-8.9,20.7,20.7,0,0,1,4.4-7.1,19,19,0,0,1,6.8-4.6,22.1,22.1,0,0,1,8.7-1.6,20.4,20.4,0,0,1,8,1.6,14.9,14.9,0,0,1,6.4,4.9Z" transform="translate(-532.8 -141)" style="fill:#fff"/><path d="M929,914.6h7.3a16.6,16.6,0,0,0,3.2-.3,7.7,7.7,0,0,0,2.8-1,5.5,5.5,0,0,0,2-2,6.8,6.8,0,0,0,.8-3.4,6.6,6.6,0,0,0-.8-3.4,4.8,4.8,0,0,0-2-2,8.5,8.5,0,0,0-2.8-1,17.3,17.3,0,0,0-3.2-.3H929Zm-5.5-18.4H938a17.3,17.3,0,0,1,6.5,1.1,11,11,0,0,1,4,2.8,9.5,9.5,0,0,1,2.1,3.8,14.4,14.4,0,0,1,.6,4,10.7,10.7,0,0,1-.7,3.9,11.7,11.7,0,0,1-2,3.4,11.5,11.5,0,0,1-3.2,2.5,12.1,12.1,0,0,1-4.2,1.3l11.7,19h-7l-10.4-18.4H929V938h-5.6V896.2Z" transform="translate(-532.8 -141)" style="fill:#fff"/><rect x="436.9" y="755.2" width="5.6" height="41.7" style="fill:#fff"/><path d="M1025.2,905.2a11.6,11.6,0,0,0-4.4-3.5,13.3,13.3,0,0,0-5.5-1.2,14.2,14.2,0,0,0-11.1,4.9,15.9,15.9,0,0,0-3.1,5.4,20.8,20.8,0,0,0-1.1,6.6,17.9,17.9,0,0,0,1,6.2,15.8,15.8,0,0,0,3,5.2,13,13,0,0,0,4.8,3.5,14.7,14.7,0,0,0,6.4,1.3,12.4,12.4,0,0,0,6.2-1.5,13.6,13.6,0,0,0,4.5-4.1l4.7,3.6-1.6,1.9a16.7,16.7,0,0,1-3.1,2.4,21.9,21.9,0,0,1-4.6,2.1,19.7,19.7,0,0,1-6.2.9,19.3,19.3,0,0,1-8.8-1.9,21.6,21.6,0,0,1-10.9-11.9,21.6,21.6,0,0,1-1.5-7.8,23.5,23.5,0,0,1,1.6-8.9,20.7,20.7,0,0,1,4.4-7.1,19,19,0,0,1,6.8-4.6,22.1,22.1,0,0,1,8.7-1.6,20.4,20.4,0,0,1,8,1.6,14.9,14.9,0,0,1,6.4,4.9Z" transform="translate(-532.8 -141)" style="fill:#fff"/><polygon points="515.4 755.2 520.9 755.2 520.9 773.2 521.4 773.2 539.6 755.2 547.4 755.2 527.5 774.5 548.7 796.9 540.6 796.9 521.4 776.1 520.9 776.1 520.9 796.9 515.4 796.9 515.4 755.2" style="fill:#fff"/><polygon points="563.7 755.2 590.3 755.2 590.3 760.5 569.3 760.5 569.3 773 588.8 773 588.8 778.3 569.3 778.3 569.3 791.6 591.3 791.6 591.3 796.9 563.7 796.9 563.7 755.2" style="fill:#fff"/><polygon points="618.5 760.5 605.3 760.5 605.3 755.2 637.3 755.2 637.3 760.5 624.1 760.5 624.1 796.9 618.5 796.9 618.5 760.5" style="fill:#fff"/><path d="M1242.3,905.2a11.6,11.6,0,0,0-4.4-3.5,13.3,13.3,0,0,0-5.5-1.2,14.2,14.2,0,0,0-11.1,4.9,15.9,15.9,0,0,0-3.1,5.4,20.8,20.8,0,0,0-1.1,6.6,17.9,17.9,0,0,0,1,6.2,15.8,15.8,0,0,0,3,5.2,13,13,0,0,0,4.8,3.5,14.7,14.7,0,0,0,6.4,1.3,12.4,12.4,0,0,0,6.2-1.5,13.6,13.6,0,0,0,4.5-4.1l4.7,3.6-1.6,1.9a16.7,16.7,0,0,1-3.1,2.4,21.9,21.9,0,0,1-4.6,2.1,19.7,19.7,0,0,1-6.2.9,19.3,19.3,0,0,1-8.8-1.9,21.6,21.6,0,0,1-10.9-11.9,21.6,21.6,0,0,1-1.5-7.8,23.5,23.5,0,0,1,1.6-8.9,20.7,20.7,0,0,1,4.4-7.1,19,19,0,0,1,6.8-4.6,22.1,22.1,0,0,1,8.7-1.6,20.4,20.4,0,0,1,8,1.6,14.9,14.9,0,0,1,6.4,4.9Z" transform="translate(-532.8 -141)" style="fill:#fff"/><polygon points="732.5 755.2 738 755.2 738 791.6 756.9 791.6 756.9 796.9 732.5 796.9 732.5 755.2" style="fill:#fff"/><path d="M1311,896.2v25.6a19,19,0,0,0,.5,4,11.3,11.3,0,0,0,1.7,3.9,9.9,9.9,0,0,0,3.2,2.9,10.1,10.1,0,0,0,4.9,1.1,10.4,10.4,0,0,0,4.9-1.1,8.9,8.9,0,0,0,3.2-2.9,11.3,11.3,0,0,0,1.7-3.9,19,19,0,0,0,.5-4V896.2h5.6v26.5a17.3,17.3,0,0,1-1.2,6.6,15.1,15.1,0,0,1-3.4,5.2,14.3,14.3,0,0,1-5,3.4,16.1,16.1,0,0,1-6.3,1.2,16.8,16.8,0,0,1-6.3-1.2,14.3,14.3,0,0,1-5-3.4,16.7,16.7,0,0,1-3.4-5.2,17.6,17.6,0,0,1-1.2-6.6V896.2Z" transform="translate(-532.8 -141)" style="fill:#fff"/><path d="M1363.3,933h8.2l2.8-.3a7.9,7.9,0,0,0,2.9-1.1,6.6,6.6,0,0,0,2.3-2.1,6.4,6.4,0,0,0,.9-3.6,6.7,6.7,0,0,0-2.4-5.6,10.4,10.4,0,0,0-6.4-1.9h-8.2V933Zm0-19.5h7.6a15.3,15.3,0,0,0,3-.3,6.6,6.6,0,0,0,2.4-1.1,7.7,7.7,0,0,0,1.7-1.9,6.2,6.2,0,0,0,.6-2.9,6,6,0,0,0-1.6-4.3c-1-1.2-2.7-1.8-4.9-1.8h-8.8v12.3Zm-5.5-17.3h14.3a20.1,20.1,0,0,1,5,.6,11.8,11.8,0,0,1,3.9,1.9,8.2,8.2,0,0,1,2.6,3.2,11.1,11.1,0,0,1,1,4.6,9,9,0,0,1-2,5.9,11.3,11.3,0,0,1-5.1,3.3h0a8.8,8.8,0,0,1,3.5,1,10.1,10.1,0,0,1,2.8,2.2,11.3,11.3,0,0,1,1.9,3.2,10,10,0,0,1,.7,3.9,11.5,11.5,0,0,1-1.1,5,10.6,10.6,0,0,1-3.1,3.6,13.1,13.1,0,0,1-4.6,2.2,19.9,19.9,0,0,1-5.6.8h-14.1V896.2Z" transform="translate(-532.8 -141)" style="fill:#fff"/></svg>